<mxfile host="app.diagrams.net" agent="Mozilla/5.0 (Windows NT 10.0; Win64; x64) AppleWebKit/537.36 (KHTML, like Gecko) Chrome/137.0.0.0 Safari/537.36" version="27.0.9">
  <diagram name="Página-1" id="KODwD70Vv7AwvhMNS0Ab">
    <mxGraphModel dx="1665" dy="749" grid="1" gridSize="10" guides="1" tooltips="1" connect="1" arrows="1" fold="1" page="1" pageScale="1" pageWidth="827" pageHeight="1169" math="0" shadow="0">
      <root>
        <mxCell id="0" />
        <mxCell id="1" parent="0" />
        <mxCell id="61LjxQp0p0RMew8H37HQ-2" value="User" style="sketch=0;outlineConnect=0;fontColor=#232F3E;gradientColor=none;strokeColor=#232F3E;fillColor=#ffffff;dashed=0;verticalLabelPosition=bottom;verticalAlign=top;align=center;html=1;fontSize=12;fontStyle=0;aspect=fixed;shape=mxgraph.aws4.resourceIcon;resIcon=mxgraph.aws4.user;" vertex="1" parent="1">
          <mxGeometry x="30" y="320" width="60" height="60" as="geometry" />
        </mxCell>
        <mxCell id="61LjxQp0p0RMew8H37HQ-5" value="" style="group" vertex="1" connectable="0" parent="1">
          <mxGeometry x="220" y="230" width="240" height="210" as="geometry" />
        </mxCell>
        <mxCell id="61LjxQp0p0RMew8H37HQ-8" value="" style="group" vertex="1" connectable="0" parent="61LjxQp0p0RMew8H37HQ-5">
          <mxGeometry x="-9.599999999999998" y="10" width="217.95839999999995" height="190" as="geometry" />
        </mxCell>
        <mxCell id="61LjxQp0p0RMew8H37HQ-3" value="" style="rounded=0;whiteSpace=wrap;html=1;" vertex="1" parent="61LjxQp0p0RMew8H37HQ-8">
          <mxGeometry width="217.95839999999995" height="190" as="geometry" />
        </mxCell>
        <mxCell id="61LjxQp0p0RMew8H37HQ-4" value="Google My Maps&lt;br&gt;Extensión" style="sketch=0;html=1;aspect=fixed;strokeColor=none;shadow=0;fillColor=#3B8DF1;verticalAlign=top;labelPosition=center;verticalLabelPosition=bottom;shape=mxgraph.gcp2.maps_api" vertex="1" parent="61LjxQp0p0RMew8H37HQ-8">
          <mxGeometry x="49.595496774193535" y="27.142857142857142" width="23.20202322580645" height="38.02553806451613" as="geometry" />
        </mxCell>
        <mxCell id="61LjxQp0p0RMew8H37HQ-6" value="Línea de &lt;br&gt;comandos" style="sketch=0;points=[[0,0,0],[0.25,0,0],[0.5,0,0],[0.75,0,0],[1,0,0],[0,1,0],[0.25,1,0],[0.5,1,0],[0.75,1,0],[1,1,0],[0,0.25,0],[0,0.5,0],[0,0.75,0],[1,0.25,0],[1,0.5,0],[1,0.75,0]];outlineConnect=0;fontColor=#232F3E;fillColor=#C925D1;strokeColor=#ffffff;dashed=0;verticalLabelPosition=bottom;verticalAlign=top;align=center;html=1;fontSize=12;fontStyle=0;aspect=fixed;shape=mxgraph.aws4.resourceIcon;resIcon=mxgraph.aws4.command_line_interface;" vertex="1" parent="61LjxQp0p0RMew8H37HQ-8">
          <mxGeometry x="142.0214122033548" y="27.142857142857142" width="38.02553806451613" height="38.02553806451613" as="geometry" />
        </mxCell>
        <mxCell id="61LjxQp0p0RMew8H37HQ-7" value="&lt;b&gt;FRONTEND&lt;/b&gt;" style="text;strokeColor=none;align=center;fillColor=none;html=1;verticalAlign=middle;whiteSpace=wrap;rounded=0;" vertex="1" parent="61LjxQp0p0RMew8H37HQ-8">
          <mxGeometry x="87.8850454296774" y="135.71428571428572" width="42.18549677419354" height="27.142857142857142" as="geometry" />
        </mxCell>
        <mxCell id="61LjxQp0p0RMew8H37HQ-17" value="" style="endArrow=classic;html=1;rounded=0;entryX=0.003;entryY=0.632;entryDx=0;entryDy=0;entryPerimeter=0;" edge="1" parent="61LjxQp0p0RMew8H37HQ-5" target="61LjxQp0p0RMew8H37HQ-10">
          <mxGeometry width="50" height="50" relative="1" as="geometry">
            <mxPoint x="210" y="130" as="sourcePoint" />
            <mxPoint x="260" y="80" as="targetPoint" />
          </mxGeometry>
        </mxCell>
        <mxCell id="61LjxQp0p0RMew8H37HQ-9" style="edgeStyle=orthogonalEdgeStyle;rounded=0;orthogonalLoop=1;jettySize=auto;html=1;entryX=0.013;entryY=0.589;entryDx=0;entryDy=0;entryPerimeter=0;" edge="1" parent="1" source="61LjxQp0p0RMew8H37HQ-2" target="61LjxQp0p0RMew8H37HQ-3">
          <mxGeometry relative="1" as="geometry" />
        </mxCell>
        <mxCell id="61LjxQp0p0RMew8H37HQ-24" style="edgeStyle=orthogonalEdgeStyle;rounded=0;orthogonalLoop=1;jettySize=auto;html=1;" edge="1" parent="1" source="61LjxQp0p0RMew8H37HQ-10" target="61LjxQp0p0RMew8H37HQ-18">
          <mxGeometry relative="1" as="geometry" />
        </mxCell>
        <mxCell id="61LjxQp0p0RMew8H37HQ-10" value="" style="rounded=0;whiteSpace=wrap;html=1;" vertex="1" parent="1">
          <mxGeometry x="500" y="240" width="290" height="190" as="geometry" />
        </mxCell>
        <mxCell id="61LjxQp0p0RMew8H37HQ-11" value="&lt;b&gt;BACKEND&lt;br&gt;(JavaScript, Python,&lt;br&gt;LMStudio)&lt;/b&gt;" style="text;strokeColor=none;align=center;fillColor=none;html=1;verticalAlign=middle;whiteSpace=wrap;rounded=0;" vertex="1" parent="1">
          <mxGeometry x="600" y="370" width="90" height="30" as="geometry" />
        </mxCell>
        <mxCell id="61LjxQp0p0RMew8H37HQ-12" value="" style="shape=image;html=1;verticalAlign=top;verticalLabelPosition=bottom;labelBackgroundColor=#ffffff;imageAspect=0;aspect=fixed;image=https://cdn1.iconfinder.com/data/icons/ionicons-fill-vol-2/512/logo-javascript-128.png" vertex="1" parent="1">
          <mxGeometry x="520" y="270" width="58.75" height="58.75" as="geometry" />
        </mxCell>
        <mxCell id="61LjxQp0p0RMew8H37HQ-15" value="" style="shape=image;verticalLabelPosition=bottom;labelBackgroundColor=default;verticalAlign=top;aspect=fixed;imageAspect=0;image=data:image/webp,UklGRtBPAABXRUJQVlA4WAoAAAAIAAAAGwIAZwEAVlA4IPBOAABwQQGdASocAmgBPnU0lkikoqKiJPHL4JAOiWduKbpJylDvk/s35d7Sn3H8of7T+xXWh8Y96Px27IE2HXl+i+5j5ff4//gf4D3Pfpr2AP0m/xH9l/JPuReYL9eP2G95b/K/8j/c+6z/Ifrp7gH9w/xHWQ+gX+r3poftj8Kn9f/4v7e+0X/9c9N/bP0sfNf4H/L/4j9xf7H2zHmf6J/1n90/aL8JMLfyf+J/2/Qn+afen9V/h/3B/ND7+/1P++/wfjj8ZP8P/Cfu78Av49/Mv8T/bv29/tn7xfhHDp01/53+T9gj2Y+l/6j/B/5r9gfm1+z/8Hox/Cf47/j/bf9gP6nf6z++/vT67Xhv/kv+Z+0vwB/0D+2/+H/I+8d/e/+3/S/7H92PeX9Q/+j/TfAp/Mv7R/0/8L7cv//94P7u///3i/26//5nXFy5V48mTSKoDd9O5H9pbUPlq4GQdWFB0aCJtBrTSkuHMZqFOk2aLUm5kZaFq5vXp/iCHGzW/Y3CcISUwlTCNvSGMDxN+xaJQ3pHIbQ3Hrk+dwvPXtIS9IQ1RSZevEFsX8f4jdm2OjlCDDqOqpCXDWAF8nWR5f2nzRL/tiKf86DPfCuXx/B03TXJm77C2Hv+fuo7F5eFOG4+3/+mxOPT/VU8dZ+ywf+J9L6R9WfuGhFZkeAsiLoVmhyZZ549VM0O6q2Rof9jd4OmlHoWt3W6qF/9B9G8jZSpgwyb+Zld3vXHILnVIIIrfjQUBgDVIIrRDeBynh9cixV3I7+9TewmNlTqHGx82bh5yag8HmFH/62egbMhVCyDFWjzxGjfG4987YypKdeIpHXRb7K6Y/4FF2PQgcwbehlZl5i+tcO+x+W3lV46vSlE/eiLis8mqU/P/V18ABxP/DdY4JpBPyg+sSGBPY2UFKXx5DfwqSfp6JRJtzUHmrzWnRWrHhZOK9BVxn4nLwwyrph0chZY6gN27tlegOYL9yl5fXAmK+5il8Wf9v4RtHjYkHs8UB2KX2Gu+jIbWamlawPtJ5LfaAkPUBJBMrljJRbmsEuNW8Lr62dVl/8phm7fcXyoBSTYatZMvc1plnoiHW+Gn/sQK0xkP+i/Z4z+v/zasTiuHRHDlTN0msTrFoTfx9fnvs23NndHZPiDMeddfC8s+grHcclPDQFabS8FFwxF4LkRJk33Rhtrr8YoXQSP/mRZbKO00fIq/AT8SRbkSGe+ZGavkzfVdpC4bEMGKjjWDDdRf/P+tQEMBM4umde+/qg/yOW0PSOp6DhjHBpszJxsvjnxdo9PicXRhBmX77ulrWdEjthNfU7EJGZyHFJb3F3pEf9D96/R0sB0WF8BZuY5IEADH67WxofsvTsGKE2iCMkw702cT8EhD4TPSBDu8sIGD5+l5gFStAOd/1J+eNsfBsXXTLXBE7QduGw5WMfr+9teVYSC0a1Lb7KhoDu/VrZFBHD5IKaSu0CksopU4J0AZjRZ9NxODRAc7b6Bl21iQEuhG+g4RiYAfInZF68vCct4zbxJ0ofl8p2n9SrgeG4iRFz411CpIVcHnKYk4kyJz+22KXVpHGvNesohlssF8qxI76JrhHuv/+apBfi9Loqlsbw+Z50BttXfvscHaO+9N80VPetaPk/AjOdzHmjuLi1glDGOLzaade4uLQf2gFITBUA9tbgAzL4+caHmJ6iYu7AuP1TPa/k00hA790zj/pyJ9T7oVp/JbTKGoofvPV7x8/8ZxyMycJHGlVl0uFQkWW9QAPVBXvDUjfIlr4+xj0xw6KNpwByZie6Dsj9UGAI51/pIgq+9Mgaft6+TPNE9+dMUT5b9dykUwYww+egPkwy9qkqGJdkA93BqSkOfIAprIiMFpvipe0inQ7klC5sGIphikUbrYgRMnDjHxv/7KRxPsYYoxOpIX2DYRH4TvONCxflPXz+QkT27Y+UpjSQaLwrjPaMqzsn8qZFyLf/7kudA4NLSroWMaB0BEpnL6EWjubIAHOU7iWx2BA8XCdPkjqX/l7PMVv7hEBYnvnRxHTK61uQzE95j5dXJTQN5XrKXOwMDhX5UfE7UmMs+gjNa+SCxBoY9L9QYlU5gWGx5O5S2MWgz2YP6uUgUweFIn2UcyDbuwkgEEE//hAohm4J8bn/jKmQhev/IUO7jBJy2Os6ZgxJKwEFOw476M9f2i1VVdc+Q7QOagPw8PlPGImRTRziykyCDjwjSYRmz0NjudKDVeygk4RTTw0Pxc/L6fLzgj6rmB1441d7qqxa65aW4pi+NzRSmrk6h3hO3utdRKOK/d8EPR2FnGMGK4UPIs/ziM6ymfl0x1+eGmEmBBISih8dOVyAD0av4FfOWcQDgEDE03k4/C7t5Hj2rSV5Mq4gGfCBEiDQWqNpVeWaEH1eSkHbdaH66zafdpxg3pR/TJK7ndm4aKab8YXYB+KKt8wqT+bLxYqtdKrVawaiFRKryzZBr6nta4nG0pC07lyfbT8wkaP6Pf6wiHlwPxPQvvByGkQpCes/CUO6Z53MeA57KfpkBL6oEze//+ZGX3UcrFwexoD8lEn3ZMG0qefZm63newoX0O2F3XVh3m9tvJzREVA3tAUhO58EPNej9f/BrNRxN5ZJS6Cud6cDdkxAifb4bQkm0IT2+9nDgnrznEz0CRUuFvFM/r3hYfcJoRWEtFFD1fn7lHr15/zm47kz/Gv/63rWYq5VAxw4RJ8Rhk+TTNFjpitfXg3717U1YY1R+ZY8VrXxtjIibb23Bs3TPZuZMtknX61YZFyQuogZQsqIfciz4tHKmggPQFlCvXaHe6Deb8nwZpz/M3etZa1viQJAjtCNVXTm1nHUldIojlWL+gs2Qra2P9L6NpfBY+QiUw9GmJ5qhD8VcKvE3z1/Bknym+feY9JUWbA9pJFoIRwlKfypImgRKVWltHNzdbjlCpDrOac6f78Fh5I7J1Hkk0rCwVBNpI92B7US+fHsyYF7ec5DrR7DlGhFC4E/yvj2ijbvq8P66vpFXaNUnGHAs7zw4ymIxZFJ5q+9/hDWNFJC8I6pqFXDdi2PgKVUISiRsvb8HNZWDEO3yYqnMmCCnv5vTvXY1Q//g1ufaFa/BdC/OnLZofboDI3leFQZyPyoQGab6ktmfyT7A6Ic6zUtQBjqMqzTs8yceWIuV5OLI3P2au9L3T9qJa4ZtvqcUiB9T6mxsBdvrxFzpeFY/BBEmsLSFPPbi9GeIEk1s8JIiGFweoHyGNiUX0zI7N8U8MOeS5bqHtJLD9kDjY9zoXPadlFkSuAvalomWxagtDjnIGNnm1/k6BwxZl5hdeJTnFp0VG6mI2OECGknPevXgbK//6VomL/fitN8MzkUclX9rgVV2w+nocOWN8CHzuHyKmSN0ecj1F8TJlyWU5bqkClv5qlWz23X+ZRgzkHwmjPsTVheQvYaSu4dJPTg/z3DkOXTt9G1Fw+yorIAA/vwL0jMZivBM9YhuP1/aSeSY27pIkBraTRFevOOuXh+zieM25+tMeP9u9pQQ1FEY+QFuoe1fYhw8zPNUD3ozPWyeRHGIJgGlvfkJ5kfN7eOSjTUSyce3tkrkjuD3t3pNrzJGFiXeb4sMHK6wRxWgxaghdvP6uf6+x3b9qtucQfD48XY9dZCnN5PhszNKClS19SLA8DIe8IdiPHgBw+hBqOiMsdl/pWoP5cuphJsZVS0W2y/hcW/0iiQP5gPfg7uVqvPiQarL69pSajyDTvs8YAtoc6vPTqxlMP0lT1NVDfta4GhnZxFkj3ufbYDDjUsiJSYHRzV8KMEuV3wIdWVuyYgqTMHudMUlOmWQEhu0CKFKGzgJWNSY2He1UIuQ+9dKlnmTTZXdUnLL48Sevy0Zq+A+Vq0bsnPtY+5kBWIdmk+iKW06AJowuXLbm3xXL2oi7G4kCTbrcoq0MtRbCKDMXFHc7Z1Mt/aCp9ZKVw8Lk9r774rf94wCd3Q91xJCynPfE1+LnW/fvILrjOyM+Q1LSZXz330ufIkIYn+hvV1vGkCb32pzGuWcftqmyHMZFlgpfD21lm0gA2/Byl9YlkKiF4QxMrwsgulpOR/srj8p98NY6VI+gaN3+XXSLZtlt5umQ8exQfilQuDwBfKzeVasRwQ894Z9ICU19ogZHHKmXAnIp75a0StjEfmeZ1KugKsUTz8IDgmIaWjSw2rDB2Q8cW0AegFfxEv6UzQqlk7J7YqHtFhiGY7wNLdZfOMg/LMkKBQd5Z19VIxBNgnPuQ8sM75PrShJU1pa6HwsLFaFWA3b6F9u2eVGN7vCDbpD636Jdzkwuea4ZaiBDI9rmOFxWQr/RMeHsB23RQpUqPOkBsZLuQ/WUarX19/XuD5g339u7hVUZ9/dO0WWqaHRbjr9HVpL+LgjDNBW+O+cOCfcF60Jm51OZvhuazIOrmHgW3Y97js+6k9wOkxDIChGAfX6PiVQ4nLwvL/nfEh6NXPj/g7MBFlA7cxO95tGIvMt6ScTwu/5w2CdpPzUrDMtNrQMPCBJgvbCqpMhOVd0L679KoPwLnxzlZiNbZ4pspjy5xAMP9kH/wmt/9xLnCtI2CUbt1Tl4pgg0sl0szpH5wmqkBtnVqHeir8EarbtA9zozy+AIzG5wFIcXAd+TOvbsjymimptT8Jvz4EPP55U4FSvl2t1ZE3LOZH/OaA+VRqTz6vl0gJ2BfqbaBbCBqo0CaXcqaccQ5kOAQ3H3EJzZD9BPugOmV9LXkx/fxRg3S6SZqFbP24iMkx5LZG4aMACUcETOFW+J1GqWcVVNYoJ8fLkFzPwJqUoppbHrKcgIPVsGOyPFXOihj6O3c1MJSkRW9ZGLffLJXiSxjiK9EWycdypo4cE11werHptj+ql7YKODq8Ffcxl0dpEClx/eJoWD9vNKqyRlkBjtbUPQCdAZWnFya7aLOPYc80luyR14NIVU4cNCj7QZvLFS3lquHXTNHqr4C0/TTNkXmy6mTXVWiIFGQUdOyfpIL24ce5x0QRHG+T8B1NOjUvszK9RJhQ8LlIXmM0cguiGbsTsCg86Ph4YC1XKJ4Qu/msl2gEPkjLZoEm4MQxreF2rrzQLDDIrWwq6V8aha12EdGNu7PDKu+oR3r/EUIVX/av6XCXDOxUABdKf3GNmA6PXUAHqc+LVHgzhxmprH2NJ7YK4CscZDg7p+4Rh8vET0PyN4YApEU/alA+LHxfwzehgmbi6TvAib9o/7gVuq5J8OSdoOzi8+NvViSKJD4YjECDNSXOSU/k3nCZ6Gp1WmtSghr7/EmuSQ6cysExScOEedeB52/o6vEa6PTuRqbPgAG7dAcFRP1zWFQ+PLCGa5vQr00rIwvZCzmkXQwS1tSryRj9WeZSKcGz3aMA6hcZ4Joo45Sd54wBBN5IDtr09smLLQ8+nIvQYbC6EWVxpZvWllYlcB/4fRNg6bjO8oswHjGUaWzXIh631z5NSetaGC8ZgPuOfhKP4dJPSm/ex/XPwYCdc6vI/dhxZsU2B/bdWoqrEY4DAGnd0N+//mLLjSVxPR0H4z/23uHSC2kopx5WKezzXc0HjXnSKiz6HVDMuPZ9iAxPBFNpLDcSayHArRw2+8ACTLg49hSyPgGuFA5VTHeGu6vFqCEPy3eWV5xkwseKZvRKnAZe+0yRYN9mX6oOFwZYoD8UQMPEW/v0rz/1Ssq4rgq2RxiWnfOQC0rn95WmuvoU4inbehqsQQxNleBpbGlBgZPyo25aykAjRqk6y5rYoM50cPUJ6+CAioWRPWOJjSXOM028U1TEJzdQZvYZ0eOiCidTHzBVaBe0xBaclqFHS0Zit9ULrd3r10kle19HZJ/Y4edCYpIeSB8L3vWpP6AHvuu63R1bjHXd48vfPB6oSHnVk4+0rUhmJwXefhSpuB8Eet7BI5dWNc0Do72S5EQA0JsODQUBp62axkqVp8rERGCeTGifJhmRg+e/64UCI6M7HWEsConlbScPvtbmz/E2ufq9DQHrjlVatKaNR9CnoWPa+D5Fcc5F+QMNGYILWvSmEmzl467qrUH4UUIujb0Mw8eQNrU5Xgxfg2uEcxMceCPktfS/9kMbd9KNlIEtEGx7RI8e6Wa+CXgiggOBghBMp4Yd3jP1UjD8HEKtMj0Ez4KAoMuy3uytwyf4tlhzMsVrWSPtlvxstK4RuXd7/B7jT2CTER95tIVURI9uI5hBUqM40hfZmIEzw4zjMeIjh25zHrBEoB2YAQqUrMwFgQAXfdtD/9r5RBJ8tT689OatRfbFjxI1Z001ok6yA19+JbiMB/S0B/PIcKU78fF095IXEslTVm/tP+e+2z/4lEJCwSj+Ynx88kudg+ILB2DdzaGE03atbF8DM+DoaFR7pcWJ7rnaaXCW9voUq1ZZ6zNSzY/dSVONY0oaP2r/EsHnSAD3859qbxUDTBHX7pUUYc5bDxeoTRyjTn553rN/RjoupzyhsBNfigrPac5BoH79V43+mCBFcLEQZuHGohcLnuK0L1M4EBcClCBfh8+FI3m5+C4pKkKld454rNP2kqJ6x6mV9/Yu0MlmxLPxi9VkD/XkQNT0TKKtRNFsZYShq9tPWqa//f+8mFA+TH4IM/kpc9KuVESTn0ElFPYMc5tnI6ZQHJxSYTJb93NgWxOr5yctJxW0XGzCUzPqqrkUvzPXgAD/bgBlv4w6+dZH8Ynv2gb2CK3/9ulBSmTAoYJI+R8B/+Gm1CYtLsGOvfPrmuS1Qf0PpLWZahzF+e48yRu51pTCfmpUl/yZp/hyg2EDx0nxEtjAYLXuRhQ4iIR0vn3hvoeGpX6c0IO3dGl/w+jyTO+XjSAs1BA0VCLh1LtZ3i2KxjNfT8sXoS/gtonpvyno1DHGTi6tsmFS6UZnZnmLlO7AQOm92e7Q68xY8i/po9+PhTnMs497MBu36/5YT+T6gxFa+WeO/sL2iR+iMYO90PXY1sP6mVxaNuros5zyVCkGbhvMJCjB4PrE6r0t5aVdGKl/TzHP3cShN7WHK//FEX52nHTRpNrA6TypqORgkog1Z/y1zAiTVxfFa/h39piFLPaqrHd0/8cB0kv+IrNZ6sV91UIrcbGuq1USj473WdXITLAT63nA338hTqDRhbsL0bDYZXCnuaS1/qaUZcQJdRJnsW0a/vsPqUzAyLVqIACQW3eLVnp9hE29gnn14mruFNi7uqtJEmtAi78QrGhY/E/EZ0+Jr0sMBRJsCb5F71WZUirRdKAFuAAiPFx/GNymMkGhw8Z7GFJG501O9diFjZ7klCxFwXBZgpkPmH7soKVvl8XITbv6AiHeTuiTEBA1EziBow4CBJ9Ckdp/6jsXQQl/zQT/1Wsf/s2tAVzoHBOHy1oUm/uhM2VN4YfIr3ENTU2Mw/3KUsujOYj97+r4qcCI4rriE4LJ7EI9VfaFHi5gb+jwiakXOzndQ4sT6qaMyeX/IddqKAHKTaFOh+6X+7Ygicaj01s8KOkqkfo9GTc2YGojN/IeUofrkfAqjGtlTrgYru8midmkvXtoOIN3XKpBOBS77H2VjGe2XhrQv+t3U8ZqhEDRiDkL7ngYh5MQVsfSYFn2BW5Ahy7lAO3i5Skuy+4qwGje1zb0NrBbt3vRkx4WJJT32zkhF/EyoWdZ/+vm1XyqNbk5LYomYSXjoQPFcdz7QjY0yDOzZJ6TsQsEdbw+NZCx2sn+uWqvHLzUyJl1mixkUIGjEIbpJLy/wrTzwxMwyehGRkBWId0KfLRp3XXFjSOybEPeq6qfmOZ9TwzQOj7gLh6C6ONAsunFwBGaM2ury9lVEdFsf/zjORS1KKe1/jIlMA4eHrjTpzkeP5+FX4dHCtBFMdqySly/t2QDPyqU8BQkmw1QmFEXUBtUne79Mli1JYOw/cb3LhelZh5yEC1ijQ3aQZfALZQpu6iTuEYJJr+DwdT6P0rvYniClsKlUBg5qkpaV561+EavEAcv6cztpRYNZYjpXIN05dX31GlZ0YvWodxOZrOdJJ6w+PA0FE0haQxc2abE0weTB2+GOQ8mGtZe50+yenkK/Lcq/6VS3M9whI68Po99FCiaKd/i2f4lANX/VWrfBIPq/b1idxfrvq6k6+u+mQ3MKjzm56BA92l9vaO0TZ3dtS6lVaor+m3vlVVkb5+ANdeSywC8iuW1xwNxxlHMKCVop7EMvtYDsZSJex7VlYe1gcAYxoidk+gQR2A+KOn1xv1HNUfBJBPvQImd2rVb6khiUxApeNTmFLRzOw04jax/qB23MQ9XZrR9xBUsAv/b3y7F7FiUQrqNiEVR61Li0RiIGjcxlwgjRAATMMITxbHMJhjbRv8xS7RiZ6J7+Nt5MKsODlsMbHzO0b6HgIHTBsgQJGpaJx8MWW0ZCY+x9+/ZGiEI5VsNn0YYnzilPkeSRUrgXd9/ld/TEo9xvw0SKJk0wstzdNilq6yONlrdJLC8uJaNBz/vASfMClDTktHvI5j5gLEV3ZNH9pshCn6fH0U6Qx6RAb3CZudtFERmTr+E9SP80z4LToTtsSD3ogvMFUbzlqWyie++M5PvmGRRDnJ3OgNzlo/HTWaJjf0e+a9chAPRD0dm2HPDpfUYt9n2NODIG+EcSTJ3ieS8AnW1TuFJUV7hHs6cNnJ3VxuOFpBv1Tu1pY2sRAmVNZsaVGOF5bkKgvLfCCD4vE01duwLUxniX64Q3g85/miK6OQaewO6T1xbGCxDf5q/KOrO86+Q4vuVwUYRlQSGZiSMfzeGAm18vEoRQEKpL7DXut5/u7v/CX8rvZffUpDxplWocQ47H2TAVee60BcBcYS0wV1IR9vWtESJcN0znwrovXtQdMUV6iKWWUcPuIozDlW2sYPrz82OgKbPdZAWFYfolmrfN9/ABL5R2fV8OBN2FnyAOl+g41h6P6qM83HCWg4OKKI+1FCil9w9K2f70vsJGMu7n3tCO9haaE4OEWywIwPF1C3OTfHgGvh/zmrYJIwyEEsFcSvk4us0gxv5rzonGz3DMflhxk8GbtmDrlFiiTItCxFFKLB8LauM8D55xnag9Yz0g4D2LIwEE7+m8uJoG+tFspj5THzI/lyrWKEb+Y1PagSh7GlwHfqQXC3i1bUrQ61dMAuombOOTtsE1MywOHfk9xoriZlBuPvZWl9ZS+Y6Uphs8JD1b8uiI+8eWiTPFTXzpzZ4Fl1zDBPVOnJ/Q68jAhn2AjEKYI4nBAW5f0T0QDxR9zJ+yBx4XlIgTAEuJSpD3NM/Y6tZleGsh7tSq60JfkiJGlesEMIDtoLo1YyHApxBIcPOus3si75nSKUAn9LbDW83LHKR1DbCbvJGsbATDJf44wlmU65xAPMvBKiTCzfNjr/Ew/s8azvhc+ny+20lCzRR9YggLXD3toA01ri232Lmqy+VOdIsLHhzpLmUU/d9UpwFHukER9acdoSvi39zExz0KiFxBAE5LroO2sgqa8WsVe/9IXWDRgrIidTF0A7YgVtgQcWlb/ppsqFNVybxWlR+k/OwOeftEfiZUWOo4psekL37CYhvOduqwKVGCDG6IkzfEtDyJTr9ZFGB6P1KtPzaf9BJZROdHWeDNbkzxvhgCRXDfMzznYJt7CSTDFHIyj3YLdi6ZJCWS9LjIjjRtwErfCYQjLPyKhK5iEDs2BbpS5ygSPX6Nh5zCoUCQU8s5YmixTG/3Ot839c94kX6wyrRv4Nrq6OiGJ7+He+MabVvMhI2UU7tLPi1pJcklcrQ+YxMGzE3wcsR7Vi9PmGqSwJxKEX+X3G/MbjTfV+V61JwnX2BMknojMfSyx1GuCKrGK+Ff8djGGFVMM/ZrIo5IkBIUTMggr94Z7XRarSPUZrL7GXWfJpxoLzBYvyogfMVyWkg0utDuaZoFqODLg+vsnflJeLjUPD7mnuH9hPr6Kgbrnrx+SJ4zcJoWbf3z+E/qbARa4Dz9Z6Dq43CFA8IJJJ1KCLJTeyOC6+D7RN4d1Gmomnvzh4OKS/bigvRy/yHThSz44ZV6aO3oRDCXjK0Mf6OQa8jjgJY1kBnZWpVL0Kq8tA8Xh13TcAk32txfqj7L2kuIE5Ew4omBQCC9oDfkkOwSzR9CRIRd7in4qMBk2AFDviO1jzfPA1WMLqCug4j/biBdHxVyc2wltKI5QSoEX7WCcjgiXwN2sYlZGafLhXr8i/lph54uh3O1btkox3rIl8CxJe0b1dRvw9WjnQoNQCE4VO0D7ogCZVAYzdJSqJij8wvESykb4ThmJO/HVbYgIj7OprBg6FPrxenY4G3XVEJWjvJbKrV/UXD1DauNN7eOm/BNZNrBw8uMVrf5k0SUeYwVtkWylD8VgpTB0gj6AS1Q3Xx0mCMfCJODSsqzPYD3sC2dmOP8/cXPFAjxT5O80vCVmblglkWSr2XTn1Vj/FTSpek0X3IPtY0s/PZY1ZW2b38icUUz0cJC7gzNCTo6Dcpt8G0xqjNzGZeI2Kea8YJWcW+BtL6KVhQhQcHG7OjIfHzjRgdwJtAeR2q57aHBQs8N4uNQPA+ylhEwp/hJVzXNZIkfxwUf3/82B3fwUGMWrZztUFNL9YFs5FI4DPMwjWliPF8u9TfHDSEU6oJOd3wy+NII8iKeuP9c6FMm/x4+ctuVfCIeHkjE2IBXj9O0wZaFp6NpPxg3B26ZBMDDRfvtyxHsDDe1dnkgQf17sCCZ9ajfbaMb7Fp9cv8Ts/nn6sUbsyvR27OhaSjeknPO2Z4Rs4y5ZvSsryhbm9jP4Oo/pMkqdcDmp/FrhCN7C3DIYGKMZuTUW1p20sY9cRnPGxSTfGZkvcuqhjMr9NxMxPPF6THmT/gGnrunwRxALeVkiTrbGv69f+xzh6HkTumWvHaNVr40/8rhxJUtWHJHlj897LBYtgxdvfeUgpi5qlbP/jNm8Hvj2enb/XUJw89GEkPXDKp27FoxBlgnfDefqcorC4tDiVzDJGeC7iYLtIEwcWgDOyGzzMc95YR1OAmCeA3kazfCAdQ3UEZz9FD9JOnk7BWfVXmkqq9okLBuwJgVjjH9FeZAG7plizyIUhrGT9/boEb+3sG8P89hyPBd6EYf34pKgx5kE43rd2xiTaAA10GegTHG4NfIQ+Cafjxheyhbi+vqiRCxCwWrlT6yjwBKYP4kOqa8+pWAFG9s8XNTugwMBwF0crQm7URYyV8J8ZgVMRgUy5e3NK4Jt3yfnn5pIwfBOLAZMonPv7Ztf4EdDKuknq9S9gD4OFyyzy8r4olm3bIs0jCpZDw1n7N8Hnaxe74zzOJj9WYgu9DaAAyM+Cop/vdZI9KV7QSQprTj5vm5HLewKZK8bsljM5CfIuBXXrd538ll8gQ8QyHFdRjE/jgAa4xQkCJqGM2yuKtgdhbB7U3kJvYU68vT/rdTbghDMHiBj180+PntCQWur0UUSDDywkBwn+hO+9b8jiSQmgZjORnFbUVDNRooCqRCakkw4GiWH4/aEsKO67fdFRBUWrTith6D+XC8QJfH5O34RcWix8IENl1bD4d2u1Dp2wbc32Qs5ZsMXt1ygnXDr8S4p5Osdf7m7rrC1Ymx+XYTz9Q9cGuyQvKpKGvZ8J9AQjhw8EmQxpdYsqCAbI2mUlTJzxYKnFQp4+4zBuBTeKE+f0Hy/vu1e3y/8uOQKO2WWne0VswlVHfTngXbtBim5LYV7anhZt8uoCQvAnMRxuKk4kJinJzb9NoAA4WZ5UceXyCOFwAHq/M+4Vwc9PaVScgGyj2CbR5B1FZ1hlug/5XmG9HKmv6Tl0LdfM1YQ9Xm51UrWCJLvJfCguQQ6Opv7pRTztdiVwsPYUtepm+5IGFoiWGkGPeskKlaviulWB6PmOoEGIZ+clQMXAQYMRmeUBkxkpMYhfJZX4X3RjPGfgHJKueivR+LENDb4Ml4OUjC4ZnFqxY3GV94gfXKuxC4cN04Qwv4ScEdRb9TEqQlLlhUvCbVDGwdDRj96xivksH/9yf9jLxXdm0fFRKpopVHgCJcEbdmg+EQcTcjFE3BqufnY6cVC8yBxXbZzfaa3ou+gg+1rKFy3hm8WTsRGqsxm2syeg5wLCDB/HntGWukx6h6ZAekuujum3YFg8Bzy1NTyInkJtJwt8OyQ4sJqvuq3cLkZMfzMaxP+a0dUeX+VbCL73HuF77304Q9X7HWb8Vmods4BTF8Icqe1cbMed+dFEZXcDfVEGfDe7GKfwo/n80EszvQRiNQuWq4hwJwjQuviD6eMfQlUo4fw9eRJaTWFrBw4B3iPUe37AzGxAOL0ax0DEsgPNGOvRJhuweEQIUpl0s7e1PCbzzPTDmW2LHEChj/Aqb38zAQJr2cSUj436A3Xfcj8AMfJLR1op8Z9X6lr4wS3rxfxyqL5ij0fSVNaLvq72Rx22ijsN6Tixpyhphry2+SRxmvlJIoGXiq7ApqtLo1W5OslMj9+/KSq31nXFsHY6x4JC39QK7ZVPkOB4IJeefSkLCt299QX2FVhZYiCSVxi0DJR5IflH3+wOGRHMQDyLVOBCpDV1+bce5YduKyyIsr76uevM2Q6Ja/+pmATDiGhQBk0ylpywDTbzEAhS9JrSGPhjlG/fhkp3loXcMK6JWCkBYtzcWo3AcoZQx4HhdZdZ5/p5CM/weu728Jr332HOIkD48WLYTT2kXGFSfs/hMO6DswTYJUz4/Nq3rKJ52uh1n4/EiiCdM1wSNnMfBj2KZM9VOaOZ6AvwnoD3e5sBuSK6K1TF77B5tb/I4DhJYphb+KhWY4zC+rZZQQntr9NinjNrbumHATgDkO4hNFRO3vpsHCifoVM39gMyh98YsT2EdB75z5dc4mYh9AlUxImgcXXvD2VKQXSO55J6j6WhhGz4iNpq2OUqIrubv4hFOpphX5dMyC5XLmzZ/9cqj/RbtpWJ5+hpB5x6kUzx76B8LSIPU3+7KhGRualFGYCIayugZc3ESdKXXF81HBG9cy42SJ5cf0/kmsRyMvy2N/5LvpDNZC4VRxV5rU+yGeERcEzUAaF4RLksvORJkygLagXhecaLLcHscpT7a/sy14lAp7CXdfN748J9uRfB2mjrjDu8YGBZPZsFHSvTh4Zasem5tPQDLS8gXMPM+soVGie9/xHfM6/vzpGooleuDdEIcw/0dARfaWlb9FJWUZ1M6sgthJ8eApaEZpv01TpdcHoONY4coz9ERUL2pWUemhXJtfXUi4th/S672TT1h1EOdArEmunkZIdHgEDE8qez9pVBPzZEU6cFNPgzcJITpPFWpNtflkZ3+AjHKYGwqtDD7QkLcBD3fC9haBPAc5vOQwVsVlLwmdGlI1VRxvgHiroZ7cPUa46giN/ZrjMIWnu0NoIZO9VU0Dpqxv5XQmzNR2fLsLSFlkSeSwIh4J3C/ZkYhEjwpS65022HoSBe5fejbppViGCqP/C2FTVKHeHw1SH1lL8jj1SWYv0Rmo5iFAsdC4kA1V8GHuu0XKrvsxRI7y48UNftE3ENL8j70AcLMwifkgtWd3ryE7zkcB8bFCLYP7IHRKDLc4IS60VF3sUH6xi2Q6oUNxdO1Uc0PK3n6sUK6ugbirsz6HmGe4WhcU6A3E9Njsch9/de9t08mIF7vxFfU2kvpho7m5LhZVSh8ptN5TAttJ+dXoQn05wBg+q1HgBygEWmbi/R0p6AQvRBQ8Mo60Ebj15BD9tBJ+SQretWjqg2esVgUOJEkhmgbqzGVQrUxDb3z8JQeRP7KaLBgeRT9Y4clXXg3lF4aT9jzdplOenLYMlzi1Veqym6qN6pU+l767Kw0/sTyKnsUKgbIyLiHZztuY05yBDXsIIum+7yAfz9nQ0QBJnfs1nfSAhf/cKFC5MvrvdfHCmQ2JInUJ8WgcM1kUmTQuBSPVFOWokPvSBxlPetfqgOLelKWV6gPFJx7pN55O7o+e+tPMAdlZb77ve+hylF+TPAtZrpreMKiqfY5rqn92Ld/8z1UGlWcyv83+tUznECgQU1r5vGj78EG7tlYUi2U/lUS4VH3W1I+X9bwVF6xrXuD3pyA4VkuJ9ioecBE7S7JChJN7hKNmFin+BCbSKy/CRzJWeYglWBGm3B54NSf7SoxK7mAFn5aR9fPOsIxzz3poA3s3Ws/kPz1PtWS6GVL1tiR8U1XmNCPNb819rZRVgOmvD/FqgdeMg1lGHTsDdJ/W/nwKAD6WzGWqCU4uxYrhICVYxSgoccW55C6ir01HP8cAm3qaGqZX67LQvO/ZNxX+ICnJHJNFis1dBbCvD9UDfTt3i3pk5GFV7g5gfk/hMxcXYDX5/qhHthaxB4+iwKExFm2J87vYxNJre8xA2dxMuq8yJ5dFIJqGCqh84wwUXoEN6LQjBAxL9lNZPZBN7bFZjDL/5eWg3LzDDhiFnJOL3kRwLvT9uxnQuTk5T9VxooZmUfbZyEzIUQbajXMyZ9VZB4SHbDBOk20r/Aio1Tf7fhSEBcn8LXYfm6Py90aK8Fqyq7yPnY7NgATeXfR3M5KKmkSLs1yyXcUug6WT6uBkjXOh/MjRTBteD6jlfxLXMckML7WbEVYCZoZ8RE4KPs3cXj/z4hjf7Incw5itDzWY7WBl0DY393JD3cXoqswD5ayfOGG7WWl5c5MFf2dXIZ/au7wOQfdpoQB0IhMC+TQSSGBEnHVJKxYIKsYHOt74xgVhzf9SoLMXT1Ar8V5sMHvCMKlQ7oWyXGrDo5XmLRToUB7PzVtn66CMSEPzkg9d4XUVmCTqgOv0xD3EgKiovzS6h2qM1Rrei2oO3g0KGcB2eEE44N+WrHnEbd1cB6gK9Q8NSCAbISo56f+4xxRf8SqfJv877JNu/7uEUqv4fLG0MWII9egGI9F0ZXZzGjyXhVsRLr7YuA8PecAY6y78Sr7BouL/qWDjmlDI8qh1GA3DoJZvWGGGDXO50FNqv3yL0/F+aaJCny/DJHH5sbrOus4i9/kT6Wbu1BUaBnbAh9Q76jRSCD2laY87BsQd5WSu8qag6+8GKiBomK50x6KH0LWoGIspjAQgXv0sIKxKgMK/UKM3xAsynkLUykXNh3ffm328PvIofrC94gDWA8AvUcRJSx4EQUprDsehdQn+sTofsUi0+Y44Ms4OmsGGcBGTC3QWVx/1fVsCnjgRWEH+jh9bXxkZZsFQpT8An+n/I+HLxxUGO0yw4AfWDE5kpZ5MWDfdE6geA6k9YLYk91VBig/T3eurqvxZdVFWrMHrL507Kpz612HaSfzwD4uj4OBUOPSQ4bJ+p0MRUMVCCrekb5mPYbLrwACQ+f3v/n8V7eBU02ng8kNHNrfqL2O4rQybE3063/f3CxdSSE/WzyqD6ojieR/MFlfmuwYCWoTaAlTSQ2BCa/Jn+X1kqcaLbl83TUbjGh6DJF1nh+IlJiG2IvkPJG3vbRS7uHpjoWp21+9QLya3cwcHN4LAxY36r9PSPWylhektjbKhA+dYl37bmfGW8TVzl+KN/0Dxtm/DgWtGnLlJP5bjrR9G45+UPq5EfztZMH341YEw0GXs9z96jEqr9nt7gB5qpjQEyEbwJwaAmFeWPdGf8SzmZ3fVUJrBaWzW2rLravpoTR2k6XrMk9SHopvEXvt/nsJkBll8HxIoN6EdArqfAHfFLRCCic4/VmYZSTH62GdJbFXOuuf1CyHOVQ3tuNuZXErUs9XhHCJFzAapsRN1G6aNAry0DicUBFZrpzLpi3+c6MirOnD2wfa+74xMziv2PPto0XRtsdnpMlTFkubYgoJdVJrhnf4F6ZdqVFuwLaxxvvPNfQwPhWrodPsdcIOdczTBUoHgGR8MJbP5fTQzOmb9wnLzncxHCnAjaBBzlAgmjUTFoUJfpTEdTJFx+5cIuHQCSf7vX8b99TYisomHB6yMXHydhrVyACfwuYprcvACoXVqq4pxJM/iMrTcZEhrKJBINrADYK4CafFsRftoQCLuLPPOlteoAhiJwQizS2QiGtnTgmwwD76bYCfmF87S2pDBzrDfZUn2D02CNv5GvURWx567rnNcmCGhS9/6UYJLA1fZ9CYrijjMinjWedF3eLGL++X63DMrsr7y3oeIQRQDEDOb/vKDVf9T6OHVnF+AJc3pRI/BJIaPKPYLRbsRU3to1gsw6NOl/AsIDV05Luq1gOtmQEbOFDQQcSIV6qzvDBvETdJonHDWNVKZmYkwLrUFncWAlRNU1SyWL2oq0BPcHgRVd9zD2kOFqQZFXaJs7kOBkJj1q6lz+HTAItuM4G2MapXJWxfk+AxPiBpiVzZwjTJXX931tikya/+nwhrUgPhXUH6FnXs7j9WslPf6SmMEKTP+oDNLRoaNf5HCD/dGs7L0TBRvsYIIi0pwwUmHJfBEWc2UXoWo+ylEyonsRdup4PVCc8KJ9s8Eu2rl6ZEnqTq0K5qACpeGm6Qnt8Y6gDjXErJ4WRWpjVJXR1xPvv3fuBTPvqpVgt6fEpXfL34oT+XFqacDojm68wrAny9NR5b9n52e7mUg6CxFIyr6gHZBfX+3ClIS1WsqqRct0hAV+6B3kFmzyQwIvDoDzHeqn0wn4pmV8e1xP1+TqXSKp207fjWL5yZblk4vcdVPLqmaXkkbUv5kOZdn8mtrnuWzMsZpiCgwI1CTP346sIQqv9iRMXDzA7cS2IEPq2uJEFbSGHLPbTV8BfPfjjFUGmfEijQwzYHBZyLR4pKC5SxMd7Da/vlyeYp7wUg4jRknYdu/oFkEx5eRZal/+EG6S1icoPNBpk2McNeQg1P43gMx9fr3oLpMujtfAonXbAEFNXr2FzHawrOmH49tYJgNglOlKW4cFVy/IY4KZI59g9NcfWWURe/Wahxwx9WAzohYt03bDh8rDXLuPqMAx3/hsI0SwwZLWMuJ8ZSJQfqjloFcwk5a+Sem0VMAGejS5tHB9nR1rTpteDorhPYqq2yVH2AClrlZIA69XgkhWECsIX1y/8iQaMaXKWX++qXJeDEm1BjSgF6w5aDzMPlK/M3bAJnlLhapGz6H77FsMMgJ7TN+0c6EwJEbUvNVVA6nKOhX2fNj/CjQVOswNPyV6Z7ykbV2/t8SkrpAuZHvgOurUrB8jjFopMDd7uC1G8RK6qaJKZ2Li+jksdZIS4AA+yh1BbcuCJm129zWfvhNfcotWeH8dZyMgDHcmoqECirZKhheTO8b4VqhHsHSA3sWBbWsO4YlY08QG6kd2gxm1LR4pQMjqjslt7g4w8vyZRTYevrI2Sei3Su5Ox1TijIB/di/1lWg+oeDZGuvo7+Ay3m0orzBZUF1JZWLe/dEzu510/uut5FFLLpMA3M8IH0qCwsC/f5jw/l35a+3nTh6gnJdo8PzGc7QC+McN+CvsgTvmqUDKTk0xMFeEDdCTQQtEB0q8+3bmXS/GHeXtFf9w8WO31K4SW5R68qB8Mi4RfkbY7nOMoOQu93DHihj0RIeiByjpROA3r0TGdw7K4EZ7qFUZYAh5HlCH8Y7sjvBTCdm1jBocBhg39pWfrOpy7vPVj1LacZxPEYjfC7u4iIrd4ccJ9gp52pW0pM2A6eoFiyyiSt2UevvIft5W1xSikmbiehj/Xek30CLFzJTk3mzIv0Pjufszv+R3SCuGRSvQKmJknlksUnv+9DVsgGv/MsdJ75uDePLY75fezmSC4Xl6jhfe8xUq7/UoW5Upnzr6mh1SQh3HBKOGfls1AV2VSEpxi8ACmqqMyedRhnXD+OOVZn3Z25r1EE6j7OgwQ8F1B6YQpyxYY48D+b0aFeb0bQheFcPv1gluVUTNi0V3m5sxUTonf33hxv/W1wy1QoM3aXBF0FkxfzL0LewnkFkojGQdmvXIi/pw4LZ6RwACcziGObCowkyJBz09Mm572VYi8+2EhE6/HF/8/KeBO0vLLkjxrqmTuaAT/Vt2k2cN1AxQjTH2dsAOvjAYXDXeiSBKdfRINzDaBK2To9hxda97Zi/2qET42+jpjo3kT4mNAibWl2gctMCCOPzjQNejnY3yVhMZbCVeH2UY+g3F8ZEARKQ5hZJ8004kWWNHjCZH2a3JSGG/rpo1g0uwk0OmN0KYvO8ABH26qnPXLmaHshsLt4JJg2fF7YQqUGSlSL89ylhCaVTqB502q08162AmF7ZVE8IlHRc1T1bNv6PZJkN4tGca9n1j39EUft5T+QXYLNNvcUMHoDw3UXR4nKrIIaOvOJL1Ov1iD3y92Dmr4bmnFc8BGE3Z4wm0r8QKLsQUyd9vJqxEPHB2QgwSyxgyK3zo/MzLZ7iJikeLwrAgRcJoH28j5UCKNkLocWBksq1WUNvkSrk6kgv4Fh+vPCB8w75H+hTx6+0IGfNvKLnidWxy5iVewKL54iZKEVG64d1kPbpGM/XN+IFnI7P5vVvoCyfwG9Fp7BnupOItF4zTr8Hx3YYbsAThm9IagSjeUpEgH/AcxzX7uvKG7OxeDVJWVlYe4No1zfIK3CSGH+rj+XzEyP0Y5wQ0OSeVtanxr/utPfN9/fdgPYWxj6cOQNGnApVg9oDROXUuUE7v8vDGXsr1Rp2L9Fzg6s3KUBOSXK0AqgIyGUmM3Hcq0lZmvTuhA0e/FYGfMELlhZg2NcaO7YGD8hgxPzmBtIVWYBlypqWXkT0iLUYBb2jplRqXs2EbONysXIAAAAILimlRCzBfyPS9xUD3Dq+muyXI8QwfwKyC5s2gZiTEhLPl3Sl4jZFNQf5MZa3Jz0FWEXDqzQST9r7XOJpNlSsuXjoD30zi70pOAszwrE5UADlWcPPh3iTOn+SjWMi4qyYATIojXhKFcfMGGocgyH+LqqUuZybVesu0v2iK29HdbYTL0LaIOTurLu3dJZaUAlqe8To8cuM+iZlVoWRiFe7izN+L0vgNLKUVOtf6RjRW28v1WjDTxfj11DuvoGhSs6WgSJvNiK2HnnzI5FdB0dBVM3lV8QhSkdhqFuAVw/q16tcshGbxgpr1zXgHX5cDbTEqRVBm0xhOWG/d2ChtnpJX1ePxTz/siQvGeboZxX27cJctM/YvLPI4q9Dad4PAUP/Ee8l55JJNMrlBNRcDzCbDfwPT/lm+T7D4oV0kbA9I18ahNo/pcsf9YqBrInlMTs1tq2ft+sZJNsSAfMN26Sn8+gWUtX55cCr6E1tozKFVFSaSTiZ2Bmrc4wLc5geTDQTqMVufNsgxxWWxAEIiK1Q4HKAY6GicrQZTHWXYcn2xdfKPI+yszMV7m/R6zxmD9pRB7IERj953/p+O4ndTY3omDsfDY5r5uHeDC3PEYwOOmG0CttM8S++w12zvUVotP8eLneXWSPmBXiHm3kL20PsWZQafEAHlVn6OB5hAQjJDfUYXaKi37jPkqu0jBqELFRN3njV6q4GdSJiPQyV2goZRMWToOWFftSG8DsAANsGNiYLJH1RNnZwXl1XqNA5WChkMQtnK5fCLmQPjBDRB4DWLIAQStpouf+OgTPFJy4mnNXa9HoTFmhhXRilzw06CcltW1k0qCBvQcrkdV0TMvnLotBr7fdrWhreGNqtZylUKQx26g8LfJQolkB9Jd4p1+ccooPvhF2g6J46JEYMTzWOnO/w9mz7R9TlNrNl+rAnjw0Tm7pArR1YKGhuvsTnEWWl8vcu26RgSyOmyxGqH9vzspa5zHDQky1gzfEuUpMxqGAqXXb3AKlpQVY6mJ20Brg6bYfgojJrLhk4AhCiHFQHeiKWjyI9mGVdeEtV9iGPFndyocWadkkmnqANEeQ/RuzpezsN7BAyBKt7SRzeY3iqhNv5U0CW4VikldQktLK/oJ/yRE/1egUS7Em73Exmn7EkmfJtU6tyKBiNwWElGeYuTyPQs6KXmz9pU82oXmNBf/+ESPCd6RxusWIx7vPi7J6SRuOGk1D/DNe8PKKXtKM/6sm73xzxG6X3XY4Y0iqwF0jVa6m7VtEnUtvxhAOii4TF+Kc27pmrZSl+4AFX+aGYBEFpoN/ZbOzESEwz+Yk3TRvrmcIMkBbmmNfRUqRe+FER8Th7/fAjQy+R0oCiHEX0UOkbRuvsnvJA1/NH6rW5ajkDODCd6LhTc+Y0PDvxb7C0NlW8XKn0pL9+pydqnKRO0df33sozcYsgJEj2tHfM+kghBd2BG4vLrAExMTseJDGrOe+iPPQW+cQcE2gmmAEOxchwHTkWlngPJoN5EBbRm5bHF72i1yM+a2CQSV9+PmG5NoPiuGYHdzu+nMbOBfvXKNwRiu45NT+9LNMPCjGtYOrbyexikwrPpgRKwkwnBMiK3p6tHrHva8C5R3WjJF+qI7Cnp0SBRN9RTcagFxMbmvjCf8KWvvGWgEUEj7sAbk2MZo4jADuI0zIxeti881jekVqTbl5nGXcfSDpfYrHqHJt92XsXMK5qVj6DJc/s7MI5pCf9RSVtX0zO/s78EFZe3/8W6lans/qYfNQh1tEBVSOAyBwa7hDh52h/L7P+fHUWa5w6+fO2VDlEIbTDEYdh8fe39gKZUS8OGOZD3SXY3M/ZFEH2PJdSiSYBG9Ipfhi+4r54bSKDyjDoyiDcAw6/sDTb9jN1tzfHpLkGivwGtrBIO5qD6u2tRNFVRunypMQYuWsWWJb7rutYOlb3ASJE8/fMGCJ5wIkaXWSGPoWABYqGTOvXJ7ZCOskO7gHarbf1gdYBJ3I3PB3S5pV3F8TMgO47kOW27huytEZqrgBAf4u7pLZ3XjJrt9XlpycK1VP04rCB1J9BgyhRpQ8HgQHJ1kU4G89o2W9u7f42SzTx/LqVJVir2+S18yA5j2dE70Zn/bh0/NvSjQD0Z51Zgq1cm7OU0VEkI7UThiaInKfT9VcfpWD1DZE3fhhTyU4C/FcTjKSuVyoknmfRJOPGldL0AfdUa5Y4tzFe/aOijrCDVPSgBbz+1A36ClKZcMONIE6XeZytb/kd9g/0NLpGzjHr6AWhWeI7YV3Q2CwwOqJlNV840QhUp+ouhgHNwfe+fIGh7/ifgCLXzu082cvEbOP/HCgI4TnVFt+S9bdf6oEjriBkXm+RzfTNNBt3GWMSyDGAaJoakrtXKbeL/YjWHsvPDpLSqjOkjBPGbsSTqccIzi6ytoXlS2jImleVbNem2YMEL6usuTH+5/JaTUcALPkboJA5H1zaOQ/16COe568ty8REpSy/IeTuMPN4EPxu2rkKhEn9GRn4EyhOg1CW5FaXoLQflC4huVz1XC2TeKPYQuyP3ig3Wpg3vBoceTBWKkiD4PdOVVJ0H24DLnAuxHOqCp0RuZ5eSZ0Gnksg/TitY63Ffm+jk8vh3pN37zRGnaqUKAGjiTK6o1/uhuTsNIpVlXkI97syLRPpD2IczrPgHeBGvxrYeOTtNa05Z4DuksZHJ+xOE2sI4DZP9NOq9VbPss9k5bjDJeiInFgH9LVECqxDzRXt4v/WPerf63UsVow5MSw1CgOrKMYlkVC6eL8d77cciC3G48hnLCCDjl3pWZQg9oYUXvB+am0evTMtZtwXt4a7pvtYrHSD8juZn+t10oW9FiewlsZGP++2mq8iMmARdJ10UyywOmmeGxeYMIY5z8mGCp4CeS2S0rhZl1QAjM4EPxO9gX2STITW37nguBLajnoKcIftTQTLwsoPMjKvfqS5Iapk55FBL5o38jIE+Jjs3jyRtc303JoOW5d1YPitTsyrH38VgJIh6HJWav8J24B/iFfL5/edzQQhmE+yIFNo475sBZkiHXN52qEqaBPC/yqhwlwAIOd4rEaZ+buVLZDmvQ1Is0VUl/CvIZJfBIRa3BA9+fZfkCBHq/TEKEXGdTgQ4YbTa0LckwfRcbWhQmcuhdRzk3DnkXdceWcmbMXXEmr1Safw9yZl1TPbeDBj8nCGAWqz0lZIFpWzvONmdd3W439Rp0jWnilI4MIh/2Dx9mQzPrp09E7kvg7qUsw730xbLHjcy1MzkjyPkZF/UF47k/N0PR2vdUnHk6rwTidXRsbxlCSZGwk5K3slqnIp8BeC6xAaHspk3BK8PgU36AjlzG6iXXgFWwl9AnYJbsOKUZ1ClsudoVWOZ+Tv+IoJfuzoJinP1gz5GdeA2EoAaqyvN65gfRUkf0ctCdILd46KeuHWEZ5rkpV4r6xt+vdCkNRASxzJAGxcuaszDYA+3ej8mBgshx9cREyTcZGQj8gf+6Cn68+4jD1KiyQKli/vdF2LN8SgQph2O6Xa+DnRS79dmGBWVVWstjtT7vqpKNDKwo7yYIvi7ROctjlbCMTi8eNFpitVn3C4xqxu4YxddfBewd8D73eLvjhEFcDNSqmkLiOJL+VDR+A4qUgnUEQI9HGSDVeq5y2hK5gl3Cl+Auudle3zaTfDEgSd6BIgETXFpYds4vNCeQqAH6pDRpgxssvDopuIUObBt8goulkSyRfU876WA4DbRQggK/8CjUAaHHVVSFgsaUv2o7twE5diJsDcuILlzV1e58mQN3JYBdbl5gqW2Q8GmVXtmw46haQfv4gpVnwI7GGVQsy42KoLvZG+AdZ9nMJkTFf69IDhgKXsx5uXLW3UkcAX7qw8JmkRt92EWoG6i55X04E0zoSmAuA853dZtl9Z/xN+Sofik0fePhXZAUCYIL86yMIuxxyKkuSAt9FeJaAw7ER1zm/KYJ5uoviUK8VxRMFTWECd3u3PTFh2ScckVJ3zp8pzesqz8EO3+6AM5+zJc9t/346cx94thlTfXNCsdz6y9ihjduNh+lzstq3MLwcUpqcC5fAbNi6H7brHKXtu7nV8csg0xIpsCOYK1uANZ4YkDANILyr/H1FjImDWOCOMds6jnB+o7AoRUuwkgssx+BKHyE2wUFUkclyjkzctMbHIeuOLN49iixA4tnaB1zgz90/uM+345lfYsrbQa9CKoY8EWHbfsiAmagHxcTOjJT0eSJtFc7fTOGPiA6TazMmFn88L3kHdiIssV44K2Ap85pYAaxsPU3FQ9l0Y6mpWRVWoTF3jlSaPJ4Zcjh6Q+IYdMTcbfGxUXRI1dU5yRF5lk3bsMhXHw0E5lgBPHIUODLE65jnCA21dflEUvTGqy/VE6qUZdgkSmNnSTIhBmR/9bBO2F/QVz0/kZ/Rsl9KZ2lJVMBfqw9uYh060MaImXk1DbBt+q0D6iSluKcJwIZhQGTEdIGdouEdUZ85z63TSxNnuaOrO1KXlOAQ5qH5GUdqUN6/DX4yrhnIznsO49SSKWA5DyrdgD9DSDvZOL9s5O1yt/u05CkTsxtv5CcKFUApdqkjpl93FDiF7zdLxfI0bMCa5s+POhQBwpWxdNxPgTckj3aOyJv+VH79xEesw3Sxk7WJ12LvpVcQUDum2AER/xxkieI0h+Il0Mj8Fz/vOgV5JevRJKl3mClKQA0THQls54x2PjOyPBHYxBlpzO77Ji0FD2khyZPx6+u2Z51ifmU7IP8JdaZeK4joYlaJ2tciMmmzyB6eM1PrYsrcw+GW/cLk91v5LwJ4LcLhPo/xlKDjaU9pGYl+3MqNLDy0Edxi8h700NZmImQrRuAMS9LM9hapUpSXjRbglk1Yj6DeAi06YVaXxjEhSNjbuTuUtWxgw5w4MHot/5FEVSC1Q/EoGwTqezwQvTQkDOI/XkTc6bgAWvxcbUw3zqZL40u6r4LKMvDsvY2jGFGnZx2Ull6Jp1VgTJ3oXoekTM8YX/CLlOTgDc4Srsj2OeGJVt3c+KNFlrcPdCoVtrTIpNopN9i+GkHAjSqt1TsATm3F8cHzOcKNA1k13UYdhpPQ/putHzb7+9szOzX1C3n9bPXdYzH3yfUojou+L8Y4ftLCKJFdkl8vw96V29KQVJdMY7yKYkguNDebrgtqedHhlia1oVDOe45KaALot2b4h8vRWo0xZbigV+4zkQpXrCFnUfMJuDVokanv3iJx15KKfXWRGUHrZJAAIphLhdHjYDm2gxEPcfs8gVkehv4MFQ7KH75OV+WdhtVMtWW44+41FwcjTcBaQQRk5AMxrjbhA/8kALm+4h2o2p8mYDOL4F8Os2IL42AHK6j/bx03AAZI5TQ3kvY+QzvqhUV8LmAfh+ShoE4VV7lgi+EAoXd4BswcjeTmwuKW9BeqhQf6Hk0dRahDUcZTIIMRCg1oigSmIWg+uCyIIUJmzFjRPAnVdE/teYcTeZzDJ1q2ockenevW/aXmCLDvIEOkkJxzkaFbXmCJZnqPvyIFH9/mQh5tRz2SireEr5VYDd/LJO4i9CR1I52wO/Tkn6lzB+Fc6+SXkTBSbBYYxDkDsXZlXK3rovu7payC9ZeqTTWnn6LLXA92GLd10QtQ4hnCwU3CrugxpfdVLRC/P5FrTyn+5wdp3tB2l1NlWQa4KoJoGgPEmo2N8I2SuHj78WZphe6hdnap6fhCL+OiiVU1liHnoeWyw/aXg4Ij2erKR+KnzuLpmNavgSjRAMgbKiEpnp8JUTTCH8LlD20SjBTBYUQpeMbW4vi5oRrxncFMRIjIXtuGAZFNWt25INSUtbU4PU1rGdg3TuopmjOxmjxgwl2GO3jLNxxgqV8fraYZoguPpi3R+CrVgD7U5yMtNQ5r7pSWBPzJo3agi0/Xq6eViPUqltFbKclWj9TcBKKgoXw1hHFvavC45Y2i/OCwFajeyO8AGyW5DHtTbwbi74HMwdbZbY+1FsDKvS7+uDUomlS6N9DesXG6cS94maqdkmfwYxnDNurdHSfmxu5s1NE3C7kmFCK+bE6GoXXB5v7gfM2bquqJOeTdMqiiaa/KfyBlWZF9klMgevduj4SKaYzzWGibZtz1uUdzHiUEjG6sAeCJdfWODRX90HPnMFIJSFAKVTYgxExHLLGBTQkLxlUqJi9NrQ5uZTfCF76ddhWN3dDoZqEePmcHjyX1DtDPWKYPFomO+MLghRaIV5dU1R+Nk7CDNuwF8BtJGv2Ormy1oRmBEUNbIkZAb+xnLBh5eyIID2Hmo+Qm81ozVijGRw/mYpcOmLbgUDnXxacJjrW1smcDwxMxWmVYRgidUmnjAX1MlYB6uZnUnhPdzNHYJsBWGJU4lyYZmJhT3FO/jebTcBQRm/HiCn/6eL7f/wPJDS6srFEIBNIhKE8s70wvIIOQKJSp5pzUaXBaJB1/SfItvhr4eBVe/nEaSpsdQfoq9t8dOQeRtsHKNirt45Es+Nk8IX+OPfakTBrx3EGtWwbh2MkM12CNWs/1bnfAvnateaNLOqKfW/h3tzxSANgyi1mQK4K0ZzVS+mGUcI2HrmAgqkSEANmZCjRNnuOHpCAwTg52F0WFjaKzJAt0ouPXOs9mvM7LuuPLTllNelpfZnYrZk6oEC6xhbHMjm4gTQFlMudoVQz1MfWbQ+luyj+Xx5Rk5nOVgmR/Utq99yGHujabIGD4Oe3YQBaPhQJCC5usQFnNN7gYZWdlTICndp9fPjH9O8g8bu1gR0VOrAuhTIuGMrPPFaREyrpjobq3ccuWrK8Op17hbJX7mnDOI3wgATvn9vVHXcC00imdMwenoi8c86vQhHn2ROswV9BB6BOxGWN/Zx552OYiRJTDGeomesCdBy8GC/MrUaQGLdecgQcIVMt/gtIknajRFarGU5cdTeo3iHHPAHYEIyD9TPaBGzMJ8bWvEZgm2OEPL6F/FdFRw2II3MRkFxtERYHXHRtFwPLXU3UBGMupsUk1WgMnCogknf4qWKswKtJZLSLfBRj+HrMvTHZRj8pEdl3mrFpCfgjVWLZQDcBmf/JAl42nJu6uYCo5qEerOp5owWq/fVR/BSoQL+aNE7oHyFx47pvOpuklF0WlcOlKMaAR+me3u0QWfzOVKgSOGjWmhS03/5KzmisQgIkWH4g7kmo5DFJHIvSs75Wjlq+6BUfzUS9+JLGYzLKZfpTvbuMCfiI2uvcHL5rY21lli7MDv+51ExTLIrl+nMSft6MIW8YgfcEZof02PzisYXXSn+/kH1QkqI5BgTL/mFYPRsya8G1HrYRf0UUXUuXqb+oRVxrJChfGQh3Gk8Vi50O4uLQrLPOecf8RhEHKJ4W5bk4npyPFEIB+pH3w8YClhRPIRkIB+7PckUV1tn0cV+sOPfTdJItrZAtzAkNiJIEbJtDpStSFLzHQGIF60lgtGNEfrRTyn8zRvJ9AjZx+3tnQFntAxD7rPxXNcRVxLIADXO+NFlhumMnXk7nqCIam99NdzDo/3FYKQwh1VAxT/ZwRQfA3iic1Am5NJfgRZBiL79IKav8GQsXy0+0MJOhYvinFY+Yt0BiIBny7jJvigR+riszgCOOVQjiSqrW7JHYyS1jMDpYiP8Ft1uc2D5yBcKJljfcqkyw06RsrgD0rSdnzs3Ny+RkAbml8nLhVI7xEOvrn8PBMxQ3paLmbeUdAEnfBEYrwcus1DyfKC7w2GiEhuvawV8XYi1hCpwvV6e+rb/1LAi0wT6k55KBiRBlgAC4yY9tNXYhhiRE5lh21bhDEQ6n+yv0zGUoWXglIQO0siL5JILGTvZWnkG40O/VLWA98ztZeEaYGsvKpRORTD/ypXr4QkIydm/7qzW1j+VpVppJUWOXULxu4SRPycXQt8hAXYUqqEhvPNfbF0uEA6y/VBFrHCNY14dIlruLiA9prCWvRfOypUMU6GPvoQ9GHyiWmAWJDiUvQTicRuiJU2givhlWqG/KCnpHXUUPEq435Bi6oJQXxsar5DGW61CNnwhpCsYR+HA79RtmNYq3qaPLrickvf6rRRmJKknRap0eUKp30lGJsCD67pDyMSv2k/f7C1p4yBKJYK3UYPB92wtDhu9mxph8E5jzuq1uUpecjwGWKlOVfYbQ1/s0jnlRrF9cy53mzC0OR2ncUYJPqbFs7ULQfheE8CRuxU+F9PbjG2SCV7HFERfqCbiJFLRLGmRnYh0O6B5DwDpVuPTYNboZ2GGZ4zNDhsgapbOMi5AYiX+NKU4CqUqdMRJQpt/BtEf4KDFkdCMNUKv2VjrdHaqbr30CMeV1JH1+b3Mimldktrb0WNFocYvJfDowToQMpvFdrPNpZPDXasM8vqHEFBm+iICrWxZ34DwQ8BWViIgXB3vKV76iafoi10MXUhsPV132Yk8l6vI+J8p0imHYPHTZ1K8Cq3IhRxu1iWC3SpnQu72qAAAABFWElGugAAAEV4aWYAAElJKgAIAAAABgASAQMAAQAAAAEAAAAaAQUAAQAAAFYAAAAbAQUAAQAAAF4AAAAoAQMAAQAAAAIAAAATAgMAAQAAAAEAAABphwQAAQAAAGYAAAAAAAAASAAAAAEAAABIAAAAAQAAAAYAAJAHAAQAAAAwMjEwAZEHAAQAAAABAgMAAKAHAAQAAAAwMTAwAaADAAEAAAD//wAAAqAEAAEAAAAcAgAAA6AEAAEAAABoAQAAAAAAAA==;" vertex="1" parent="1">
          <mxGeometry x="605.01" y="274.38" width="74.99" height="50" as="geometry" />
        </mxCell>
        <mxCell id="61LjxQp0p0RMew8H37HQ-16" value="" style="shape=image;verticalLabelPosition=bottom;labelBackgroundColor=default;verticalAlign=top;aspect=fixed;imageAspect=0;image=data:image/webp,UklGRsA5AABXRUJQVlA4WAoAAAAIAAAAWwMAhAIAVlA4IOA4AAAQlgGdASpcA4UCPnU4mUmkoyWkIZHZOLAOiWdu/ADMvth8ZT/r83bkv98NecDuhRON49yT5kw6dEesTx5Eq9SCY/1OdWj+Tpfzp/731afqL2Dv1m6f/mS/cP9qvd3/63rZ/xnqM/2zqffQA8u72lshXnRctf5HjD5yfqk4znb9F/tr/V/x3HvwIPbPCRdQ73LYB8V/9H3BP1l/6Pln+Wh6x7Bf6Y/ZD2nNLz1x7CvTXED87ET4cduasFpbvIErBPyr5WC6a/zL45B89bHyKwFocP9VUa9Ma7pDWAmdfPuEzSfWa2NwWGFVGabKlzm+McoNNhgkqlC7vDH7C/fhypMKvuWjua4WMFPRc3VlVWzPgxXrgQNH9NwKesUrRtim/D/t50ps+9gl6grik6hDxIDrsrAO7S0EvygWglzwzK2fIm7FenU+NXpJRbSkq8H3QpdE/uUjWSJOd/D3mUAnXR6U3Wpt3eFM5jdpFg3seqIgpIgasRqUEES/NsxulyjOckgR0KV0U/mhOsedNNMY/dliCbkShuanvoAcWPBQZFBmM2Tmma0RsCx/ms2jai1KGk0RcldIonAGReAofRFJld2Y/hpNiAdc8GzNPCsQUGzswDvhv7MbNq3ccAs2y72OrxOqVDud3v/HgvXv08U6u9IL4jyqiaFWwb3Poz09YWw0K6+0uuyW2bXbtBNK9R8Boag3cEV5g09ugBfDwLcOFgEkLiuaaqNJr7ppvLkUuIod9Lwey8mlFM1t60q0JHoYyDHvi9p8AEnsooa4+umo2oyYpwgfaeDpASYDn2ZFT1ZrE3ITwGLGG2ISz02KF4ScUwvncnhtsHi/4BgQMH3kRdA652d6aO4rRSxv0A/1JJXva5UkVdeT9wOfO2AffGOGIbxz0zZrD2q6WRoc5KQulgC18K3Hb8tggusvxGBBKg82ZSQidQmhlItciwIu1dQktEl2zP6ZD/w1K0Vn15b4q2YtnXYULsJ/gTJOywVEO7X4rkCAcbXQyLWCReNq/lyXNCOD3psXI2p2eDssJh195DBHCxIRHTjuZA1H0rNsmeumlnKVcgDeM9gYFRZQ8AzthmDgh1+XGS2/zSoeCwhs0Zm/rfBAoGZLiInnkrZKIQZjj/DSU/pUGDLt1pHcg+Xmflzf+YRH0O7eIuJGfJkEJSWzfSlRG1dx1ooemuHBgDtFpt6ZkrHKKM+kYzqU884VXExJWKzTVh7Znn6juINjIgXZ6pA2MJQFCQ13kwKE/LtIPtoFYqwgPUN8uAI5cXBYaz+yYoGpSLSTIat6Nm6caZiUra9TCDfCW0qopMB7s5W82CWQaNQ23JH28I/A229RYWGaOaf9cqwFCPm75LpY8GEX5MUUtXc+/q1ZJ9nnSxplYpkJfaxmEPFdrpqTrBwpIk50mONTzznv/GwnlvtBwfIJrXkCY7UP21M7DzDnvYZiq8yvtaBroO7+8ZzHwLzG8TP5cvNmMdsVVEnWOhyT1IA3+DH77dvOp7JjkRSt8F4Uo+1gY/mSD5emx6hh+t9eAgIy4krf4un2buZh0geUx1JlOfy/Fip4F5Q3VTHxhW54nuTJUeps7mv4gNq1fXRfDJbNqaeMeGqiAQ/Y+ygMj2+xnSxplT78saRUpcuZR7WzPm1JLA9TSdj44m6Aw3ZWeTWWJXMVSJzkn45UtM9Xs2Ffg+X4TMTtm+C/3CUXxjfN1wrT4TNHEmOcgazn2rmhzjLTkdC5SGgOoip0baQaEn7WpAsc7LL6Gb5rL3Bcfg/k8zabHlXhDSm9U6LfEDhzgCOKlAW+zZslbUMLXap+RSh7mSsKboZglOzywY52zV/Yfn5PUCvapsAb+pXV6+NdYv09YLLeNGMJb4f+ExSHXO4A+eRjAOTaXa9jqy8WMiC2qO2IWYiebXSuHhE8cbzxB/ymtMmX/RnNjDA9Gzu0jka+tv32qDJz7lrkJe0NvXWKVM54/1fNBnsRZQl4IgS1TmFTp05qAyi7CiupvzoPAkY58cpRXKa6pSCYECcZ4CFryKHhnUjF4Vs2gQwtYUErbekuqjQk9IQo891FnKmq06zYNdlMHWnmdMhwZ+TcgXwnZprIKUDJvyCnB+BGSMymJU7l4eLdYtt0u0rz7H6pVDnhIpQyOEs77WZCL3NkuAGTVtW6T4A/yHyy6+ppy4w8dcoA03u8b0/FCYSPJvXTsT0zzQv6qtac1cG/DxxnViRgwiXflqcmtqkhHmuayMA1SbsKn9UvHscuoSM4VAQYe5WiEdr3bnCXv5J/7Bi8O3D3sqCJ4t3mvMA4/4l4mRrJx8dikDKp8wvEOm1qoKkkX4uSQIw1enUf4Sc0QrlNjFd3IiQGd+c2kgrN+w4Yr9TB6efVxfHfyhVDdptM14e8wMRVZwPfFXtbevOfL0l4dXUTJWp+WmtJLG9X0oKIDKj8Bw0x8BpT6IkjfG8GQppT8SYbEv9dSZYlWfvR7JmGK60CY7iMQX8jB1/iaVpxx7vQYTTo+PK9knV4E4XcYsCBOQuD/NYNXfCKHbWFdlc9EH03Esq6mOvZI6iTjw1dfx0AUYlXJr2UfJc5vCvOhH3EzAb6CiO17MiZAtPPGREv9Fb4fYBNxS5Bh9NXj6MPpy9VdxwzYaqFESQHiLX+ETMLyksV4/OU7ufrrzWPtUnBmUpxxMKwEN+NM1vfedA4MLBIrifdwLx77uk7V6XIt+B2nVR7HBu9m9vm4qExLX2b7yUXgSb0hcEhBVA5Hsj10dZnIpjXEq0fUgLA7uLXPMmFZ1lz3k+dEQn80NFbsVqDyUkHDFyssrm7ClpJzQmwdYCed5Lei95LCKA+HaGdK9HyNMc1pdlNIE47XL79mN1t/vxiUc2efRuBUoLQnCAZ36pTpH9pJSaahBtWGPNDkOqaIhN0oto3qisqM+dsiez56Ll0yDIBm4Xsv/Hg8BjpeoofQDJqaJFqhV/uPjuKsBx+s9U+1NdxMj5+TwlPExxLboBfzs59YdglopWb9lAWw6j5aWk1+jKLbB6AoZioyxTwC09wKfQqcgarhq8DkgFrDQbinqlaI0SFqsQp8OK14xk509Q75x0IrK1Hfr5LWx1mCNL1DRyVzJIzogboIIzVsj5Uz8wJiPKoQIqJRzFs3UZyFSTQnYg5VvK6tBlX44ypo/eqvRWLLA0WpqGaV03w3mcRnGwcEA3YTzIF6GpGNEl6Fyam5lLiGQDeGQ6HtbBveJCilwT4NINVOp4NNcRnAaLgf12LzN5AiAHIurZ3YA2uOicCpcmXPDlJ3R3DyM/P0hHEx0ntSu50xv6bZrj+H+hKb5uqxCrcv46oC7QCvHVSQJriI0niUoho73AKBu9RfRDCvALpJw3knMDriZqWBVCv00Qs+MCOhi8bnWtHOcbMslnL/Ivna1aIucW2Y4Y6Q+9wGO2FgGK0uDFc7lRcdZvmioF5xwhVuJCaLMOdTc7owuNYDulNcc+EZILsHnS2L7vZRU2A8tttdSdBAmfBAVIW6mrvsJsZmQ0WZm4l49/D278tgQfhX2gag+KGkCaSskvmPp3Z53BXgJFLMo9ieIQR5E/xNKZl7L5PclwWdmZXbwrGliAk5P7kEmE94OB86pWHkGp14cr3bLo/yKAPiV0jSapCjE2ZPYg8Q9KEMTjkXM5sZY7jBi7dg/pQL3J78Whcn2/8tHtmyonuJ4HqaGgj15vmvpXJbcD2UvMpph2n4W9P3JIa7nqD111u/NgStU3Hd0rLF+dlnFIdeCZQM+rpxdLS+19KgtdxFaAPOk+4Kb86ReEeyi59SLU9rcZgbjKXA7ttAMhr+MpJ1W63XlJnAUdEQFGC9352KgvZX1wRtqj7FPMxok1Pbbk8ejPHQ8lpqFyY/kH93rAsR9hLKAQNX/P6jdhuWXNOQtg+9OY9q2T7nBeGqkALcE7uaHDu7PFa1Em7VM+WSCMwpMN95kcKbzRcOyrICadT2uOY5e4L5sFVX4mm8baabzV1qhgPhZsg8IX3gB46UYVRTdnx+2CXse008a4AqMwyNWQawrhyejVWYf9P1Nj9UJl5juPkrcztZboFFUyWi8zoWOilcWiQihIZVTzUh83EWNjo050DCwf8qDI381DC7r5WxgbBqE/iQQwJDXeS787EAtk7RQbAocIImdfTbyTg1w3S+sZ42V3iQAecIuN1I/oZmvzsRSY26RzImFWoW8TBUBQQUze83/x/DeRGb5R7+j2YQzCFtCcnBeTl77XGo4RlLTsIVNzF0Gu8mGA2GOY1dM1+diAPvGIR4yLtNON4/VMOYxBT5vssdInnJkhsft5IohxaGYQzIGxCQ4OxvjsnW6lS5K7i0MwowXXD7pmqgAD+imP/9V3//K7//ld/jGDx8pWQCighidqYDH0Pz2wSE1dUh/wONzKtCcKrkWn1Mn811585taVFi63YJY/EINrtVJM2XKmFkKNpc4uzl1cbPX4quY6QSZicElTuTKOyqDANsjiAKZlnXeTPosxGS+MBhkgl44var7TU/GfFvlgzZH2ljfUofVcPz24PaoAE/BpE0dmEL8fE0u21VzzRURneGPmvXGJM1AQEykft9vIv+1fry9Qvb3XhpYB+rMVZWf+ejpB466pQqfey9Jo/cVo1RItxkpQLnIBp3Tiv9T+ZbuZIxOiKLWasj7HoluZAfjqBhR7gFbM6Klthq0Q8T+Cwk76P6YAtLHk5uQJhOZTZSUjAAA/swcFAhGbwWWiepN7+1Pe77076yu8nim5PlWJkylB3MzWGfs7RNN/OrQJEOuyOnufoaPEOvXqyTIwaQktMO8FHt8Or9wiNLpd70NYsagVOQJk8qfcKVBlYpyjmS1P0mYrs/V8lFd3TqnqpWyNmcwFu85gRwIPcOs5gaJFQFCfCTF/jhBu9sWHXx4Q5e15OP+WJ33oyhq30I93Y7I587viAn5ZUMhpQFtOU0svYcAJFvFrIyj9+rgk8pSZ662uKSPs/I49xdNrvDTqQADU9y7SF6bBQ01t3IxkUiB9DJxIqAVQA1+G9sCDjhT31gPOyXeA+M2QchTx05x/pY9jYJItUzgbOBJ1Z9BCpagnTDjeDjg+U1gzJvl8mlgqyOqqOgZbgdnLO/hzOIraNmoXo7JK3yn7CW3erN/cKUcDkW9dULJFA8GKSpWlYKQb+4fArOmjb+/IKPGtFzwOmCsVfM2xXPbJIfOfZHYrgCJKbGBeJVJX6GTNhLN3OBvlDCoaw4GTL5Vb5XMvyENup/lflScDpJGj4v30cgvt135Dd8WbEnCoCluzwlLWP+R3QcYEZdvu//ue27+HRML54f/+oybaN0D6NaTW+6/8BeqApVJwqQPRC9z5XtCqVr8Mmu8DI60H/2tsMlaavgkh+SXwHmbIhPtzkWE8y9XPNnWgzh7zwLjenqpJH1VKL7QE1k/TM+7WU9SHWIiIPeMw/6+I/T/zogWT17e5iwQXw233DohyvsdsjXmXRS/rxfKAd4ZluPRX6MLfaIAolwqxM197yUfLqn40Jyr/NvhDbQrgzEQF+buwOJ8S5KpJBNq1F+3LgeSZMnbb/LmXi308skfHLXKfFS3cEFFa2nZyPbVK1jriNUdXa999JnyBThxdZFOwQGKHLMRstiN4uniLMA0Oby8WOVY4qiUaShPI89Q+k3PLpUOBIqp8mTcMG1ghhOWHmZylvO1N6r1uh9ij2WqDdML9tuMXjx/dC0bXVb7VDhmq0pMvYqStFIaA7rwDM1Kr/8Q55uyYI2wgQrT7j3X2yxw/Ks8Z5MenKeI64jzFoB4YupY9gG/iaV8jOoP+I1GqwbSmwVJyIsP5nSK5u3mQBphOWIJUdBxpcBbHJu12mf1U9h0wj7xbv4gERigiDUflfxGRTR9uKXCakJk4i5saQCr9YRmpuswOOfxv+LdRyjkdMmddBpTq6ZdGdAAADhgO3KEQeMQ2hCOfTO5eFUfP4icA+aP1Lk+aVpa5b5X4QEtm1Cqj/TToYTwYzfWP8yeLMzDFZx52sRmY8zSjcoyIW4a8uad+GoW6etCFizfDZAdBuyLEYmGs91D38+VDHbMAAJEFITIwnUAmBteBKHbYpN0dR56OXtDlqoBqLbUI40Y1JD3VJuStZM+fmNQeLwCAWxV0HtFmmbN9hdor9GP5/2ASZkoUHle29OTc+l11vBozuNzuyXwMQ2+QRfmBql5VspU87aAS6Ve5okHWdh34vcoySL1H65y1E66laGkRh02AbFxavxRLQGemGRY3B0VgqaexBp6bbGs3vA+gcTY8WkQYDlQr0W+YDs8hwMKs7o1HYpLRIT16gAAYWnpsu9vFsGD+ZIOyb/T5eQVpwUc1g8nvdOuTqQBUGGtKrv+fLmCAs9ShWZOOWdtTmjMSyvZ/Wda3/8PCfNb3ikSlaf8k1LyhF4EjiM1YullxnSHXLN3YyUoqVYIJceV+bQE3TEV1sUcYI+Vwo4q61h5ZTqv3h/WleatJgI5gE+8u+CBaSvJWC2uWO9lK42XqImrCN8/XXBSpQvU8eWqeHJ1THl5Vucizpf4K+B6tJlQll8GypIpk9BhhAhf7ZYPGZ5zyMKw+a2kqY5JYeB3hBtWHlgy4h/J9+61VyNMx5Xfyr3Ys3eglAq+BbCFxyOigZ3DP+Wvie330msdOwpwumsGLpRd+R4QsnynlXIAfRihFNqTQjrdaddWO9aFS/IrRvgx3oQ+aJ1j0qFLcmGhiqUtCz7wDN8VBE47NV8DpSdTg5XM7S4l7Olti+W5sbtNvnxrmdpY6t7iE/ijWXrl8K611eaaMQwTYGpOIRI5My8xN9oitj39bXbIUNHIJsEDlYyKkLqZrCK209gQzvtcEnGN0dipTiGFsF0b/JKROzzrLISWURk7QYQ2mMiVbro7jHlVFn1D/RECW9omCUpnbI9MVBG/V8uBC3gQSDOu6akk+m8mPW636IOPqSfmD4cOpiabc9roB0U7m3+8tUuFmhQV1kH0YJDaj7TJ8TuBsc6ccOSWEj9rjgWufRsC2gllr2dKI6pDF199R4Z+foOZod7mYZmgyerGSl76psL/JbOUZly/sg1gCeJcN+Y6tS+1PTpm3YaeCMMzkidCvr4KLAMWPTF/iquESKCxberSqdCc5Dvof4DbusRNOVHVFPopwRvQBWJEp5QBGjn3wmBXX/JhsBbpe69VsBD9ICVchUCofIl1pByjBLHM5ydcTXnwalQyGMv/9HA4bNPxl9H/DKvSxBNgSs+ki3K67HAR5f50yhusaUvy98a6W5xAR/82TdDjDQZqfkiNk3/6ohfS5SCUWPTGRLGDrBEclQVbAkF18aWw3if1qPiuYWd4ppUjv0et2iDm7DprXcdYMdhxY7xIu4u260NvmY39EcNn3nELCgG8igJwzhJfBk+4n/qXc0uxc7cyrhn7YQ0q+j9dzp934HYHIyMX+wl73Jg4JPOHhW3syn5gap1GIfMHUauh8fBGVOB49eYit6/b3BR190PBMcnNM5bPMNvDri0P/rL/Sujw2soifJS1PxYNjlc4hcCU9EY+9ZUM8+NmcennZ1VJGm/lEnnn7rcbi0kJHTAdiZFU0+9InrD0pFcJCjYQEQ07BiLHIHDKpVrWdUkq1Ei1ZZ+eX27SPsq8SQrVhwLYn491w7rL6UfUBt8FKZtWSy4nirGbWQ3TBrIvSmzRjZgYz+y7QXoX7j8jR+LjVt5HLKgoWxNz96wdw9MPJzaOK3YGtAHhv9i9tyZb1VIuWA07siS9FQM3jmTZpLPZNDK5NzM96JHZT9EP8tFM4wHNqniS6We1IdjVaXR4zvyl7b2WQZDqS959QIRDqSZVKkl5R+JroxElIzZpH/wW5UXq2F4AU4INLo/z7wAzqlHJySJQUmbZCorrsAMHu+27cggeITDZNuZFvQFo4y5JJrKWufsOeuJAEgx2w3egj8NXkmSDOEPwsA+Npmcgg45hF5mHb6fZXHiIPyCRacBSVkgLZu+3ZtilJ9ItFEThZAGAAK5NvmvbQR8P1el2K1TpqfPwsJGfooEJ5vkv1ZePO3Ud/pvCXGDp1LNlMfri+yfHnTy+8dd4C3/aqJY0RxtBNH6AoiOR+C7WnCfdBKM1bXvVr5CAUyhaTbFmYH8izFlTnJganEZ+lA6ETwD3HtRLChpRRPdpRegF2KquLb+IQ+WukQPhgxa0pdeHmXv4MoVdi1vU1KMnc3Rq+4eGkyLiXc+6RHR1y8vFu4VvUuLhBxQcCs0Wi+5Fi+b1YhnTG3Dv10LWHdnZQpZzuxhRL4YrgvSx8AxHvRIIqJFTZ0FjmKqJmsjR5sFFyvgCcIe3p6iBt18jzD08DBbkMahPf/kvCf7xa9MbJCl+n2cV+vnaaSnrKs/2+Zyy9wYYbXYXV4K7fANHWoTintq9dJpQ393xw1EHME43lS2iV0ldzhSWyIa8PstPvIvmCpQ9zbNDGPUIf7qUp8I6MjiICR1jtBx5s0EW0MomyZT3kFvekjcCO91MI6l1155z0lqAXYs6QsB8OANwUG3oaOLRymDHkC7g7bnBds7nUX+U14Nm3ePdbM0U+MDmQTka+7QkHifeN7sHnn7VSYeyj2gqZw2pHw1tAAykOWrUm56z4eypgMUF47F3bKRmfjbe3F0Jh12/1dAd/hGKE5+2CUb2w8LcS/oPZ34G+Wk97L+WYJP1tCfr0FxopBwosXP/ZwVVc2qAkK5B9R6pZ0r2AAROOUxnYvlUBVtuX2pRt/ctSU5DhcxepWkTiwpx66JyKye5V70c78aQOJa8m5dXL/+F+qKcdKrfQXRQXkbouLKEim+CYcQJHsMd202ZSAUVlDueTkS6bybFu8P2j1MjxGCIps6Trb+rC9yEKTgvPxCzvaTuTFQJQSz1JkbVMPXITiqlThrZLZEXmKU+3KhtgoYufQBRfjCSx/r4NUr3Ooo2gQUwMeiR0fxt4nQkgc0yFCCc0ZHw6x9U6BYYFvIW1bzlj0OWjWTGigsTM/ZMEPcwo7w072nPEa0s2CgDfRo1/3ZHG+f4gUcSHdAAxILqwtgexzXj80dUT6PA2gAPBPhlvuAN64vqXp39YJaA/ypKajkDtaW2VU03Zwke67f6mZbXIUnVyu/QIUuuMRDO0kutU9NAZ7apaupRNHqnRfQ6+GuZ/7165LUVvdoYtwfnMhgWTrWQ+FK7UDrbYlJc6NmPAmd4MYCIPBGfOzp/CNR4/L3Bl08ZP6ILWcgbVAnBAKLxPW0fH3UKfFEEzvfTszYS1wmqNGQsLUPMZAhwrb4o33RP4VyAR2e8HgWZvxnufO/gItNl7Rnw5NPJgyWiwVsEs+B8qJl2RHfZ7o+VY+EKzWKDOAJxl7VlGkcfTTXLOFz53HWakGfA6+dMTDYhBqOnru512fgGpaAqOF4ifNolscaLjxgfTjDbcOSgbNkyk4kQ3JDG9gWdhF7JTURd7mTeEAygjvf9/CEfsVFCxSKuKzvjSVa2ChN5WP6EnFOrBBZNI9Yf4upk6w7rddXESp5HpO6oUmUmaUB8D0CBSYPfDhzlwVDBCZzJlp57QQH9E87poY152QIJ7qTwX2aMFo4maSK8BEHxaQL3dTN9JeK2MQUVrlY5FLVPnMkYhWXgP08bHiXXy0MuweqIBokTMKNffmrkEII/A+ZdO8Du3cbTTVCQy3g7s0EOtN0SRDvyjrjNpeBKPZuh0sJp6BRbDWUSwX4Y+MXJ9HwZT6a9a+GRbfulX4NB3Cpg3GOIvRJHmXyHWQx4F0HanPsWgp/LJkq9wh4ToNbKLXrmWkGo8ZiBxzjHCnPUPv57e7bBD4QHOMsb4kNtDufqgS8bodPkoHXTikFlaMN1DAxipXo4S7wMnQwfrsDjRxbn0wr6m7qJNrCBQSuNV3a0GGy1JtCkmf2rdiA51PI+987dp9KP416aX5oOj2vIY9KsGJhnkvPBihDWmugRJhQzlyUwy73Z/kgs6KokKKknCEASM8tj1zaC7+jehEdE7beWX2va3FaYRuegcOwbcgIl1ZXHzV286O7L1vKOLj5c4IwQ72js6pqGO2yKlf2T1nq6G5s/A01tezC5Hwz6nM8eLa5qFFPFLgFqwrhobEzuVGNNll7eQlrPh4f5y/zaaTegi9WELEEcE0Ayb5Lmk4sgbGKqgXpj9tDMTkcM6r02OMCtB7NtVObxQ4uQdBdxInEiyxSURHnTf3khu+z5TwlpF/960uM088c4n2HmMxy/ovkZT4lmpImHKKj6UlIlU6vLibOsHO0zI/u/Avg7cJSwFV0m5PTzihoVHToltAbVnBiN3k565yxESPSinE0d53Wv7/nATkm53+PwvS6pP4dzvI3DlW8mYYPrNwg0JuZ3gQpowPsaJO8Qu6gZ4GBVaC4Ejt9L1I+6rL5Plh+/oeqXl75CilJV2qwgA9Nj3oCJrx+9DyUNmMIAsWF5yHOOdjwtGkvbZvT/ZK/EvMmgov0CO7hlU2HaxVCuzlsogBUOqEvwdm9ryyjrBV0gWuM/OVo1Wm6dhKW+OEuWDYH8HyacAsmsvvNPorbzEgFsU0ryLkWnitJ5VU0h9TV3u62pAf2G+vuywkCe5dWkt7hkjBE//6hzTVmi6fVTfW4CBnBXQkP9ntkJb0YRpJGGeDdGlPzga2kPtLqH96uHYOVaM4CvYaaun2GHMd9RTa/+07C3rpLOQ0rr15NyjVlZKwIAi1SsQNboLiWDt35AWC912GK5Z0Q897e8wr5EWL5evVXoZSq18PWKmx4XFcv9WgqvaHH6HWtj5jP2Wj2hc3f1Dtiu11LCf6ZuabWnF2KdCbyFSe1V7r8XSnMIVIqXUJjlZANXKf82voWJ0cYNmCfhRKM6r+mSQ+aL9S/u6oSEumMAA8OO0HNxnQZ9gB49ou+j7pu3RXDJaX7pd27A4aasxhCj2o7RL6TbaRB1qlPR0hpDY+4x66eRMQA5zsluan02VSusky70/gpp8ru2oQWtSxpNtnhNbVi/3Zg+mnGbMgR77axaAMPzf+ZmLtAwPbOzE16+9OJ6xw4+qQQSWOHg2Wnd85s5pUYwdsJsVePlkfhOrDYHWXuxb7o6HJdhYNDMobt1sJHGEec63NP8LHCo6rwys5o62Z4Tplbj2ySmvDgmOIPDA4hC23iBzHNZbL5O7KN7kbSWDgS1OHC3/2kmo/icg4DHv/qLshzqnPMLT9oQ3+WH2RlAv9wAhl2PbWOOqQbBx6PsmxrTuoZbWVjW+WNCeS6tgwAAGglTW+PqL+L8ycANU7HiqkClQG6aXkt9o+UdBr4YMxj+Bhca1cPM2yWGaoAP64zo+oHp2pyT0lkKZedx3k/9JOCuKoOpH1yVmOhl3JkO8Pl5BYU/sMyHUNf3ZxI7+pT/bYXdXTM8EwT70dOR2A5HHkc4EtpQ6YFkz899ro8yyhL1HB01s2VCHSV0BH9BY/J32uyX09gzbjrwFp2kDftEF5/cNshJjvWkXfO12gQLQ/w2YVKPBrdVl+WZDwSB/B8G/qnusN8jg5xi7Bb8DHYhyIZOkPan7iJi9gyFrHMIB+oUf+QntDec0Aibu3+HeWT3RK7yPIm+DTJDFCbD0DknJkvHn/4hSGCliPOTBx1MaJXZSHFjOVkaM2qXyFUrupyy3BnIoZ/DjPxJ5ph2i1tORRdRo6CaXLIfZBAGWhS9sBSE4DoSxS/1HP7ULtGvrWWiLZLO0a7OkW6+nyz2senM94Sebr2SexWkAJjXiKqCqydQwn1raGfahuoU1VSnh86KMqET0i29D20d8AtyR57oJhxT1+0hMn/L3sb3WQbN/k8nnhwS2WhTX4oy1jLnu/uMbwJfK09kvtnpQjvCORzf8/BjbV/uChg8J26DHdSZBz3b9YIaUCekKFWq7qsknHytJXV5X7oof7PPVKKIEiLcqTOT1rwwB8q2/U0Hw5vNwEoBdwSRbt1Jv9aKrsbRf4FSGSIc2cXatbrLPx3hEEARBW62VWcrNdx508nH7HFhNRMADvljRhC1CZRaEUWjmqNkLUvY1wI1sc9PWX/7DSBHS8A6sQ4Q/Fn9J7nrh29j9YjGa9Ytp4fe5jG8Pd5E+S8nP0GUWTg1UnX37Di4jBiRkgfUteIYVmDl2HxOqnyOCcHnqeobH3/QjXI6mLzI3+KSPTRJoVB23X2rPoiPWX1ZcrQdAkM7zHGyjebSK+OfUUjgN0iKeyE5dOkiH9QZLZnJPcmF7MK8wn8hgPpOHgGpHLAeVRWT50XkRdJDSjhLiS5H3F4upBs819a7R2lXNtC+a0wOc0Io8oPHMGdXNtguuIa7PDgytdqqUl5aelCGEafpWhnZiHefIrmLf/Y7jNSvTLzptgo3EtTqHm0IZwjOSvpu1Qy+gw7Wd11d95uUy5AOONRAitFbVm5eRWNcHnBUqlzoi4wVl7g8+y7deV4O3XG9lxyDjMkQglOwf4kmJ4WL9+XvObLmN+cu20Jg38CogGeLOoQ2QmF1nLoItBa0ZidbuV3JcvQvLpdKjwANDS0uokg4f0dHc3UlReJUXWq84wrCtU0Arve9E+jqWN7CPRaNjbMaYK/Qo1EXeMTQaIFIEh3wU+qWhZrhGdESDf7y0383q6ozR9j9lRRtVUEv5qa4COIKmxR+DCKsTYAT7L9X/wjNq8/6PO/FEkKnR2/oHIdPcC987xoJY7Cq7k9hy05PfyjcLWTbaZLVbP5mKwxUvJGaszoZp9GX+788aAYjVIbuJszkVJVAle6MqKHILqMVJzTAt+qSnMAiDoZAZ5jp8lgAg0A+UNIQR04+DB2JA7rR8DXEui1FzNd7rAu3JhxNUYO2zTu7/BZInMgnCjhqXaVQpR6pheow4hOfRFrKeMQVUrDg8yQSyjhn/Ge4TurSiVC3aqQhLN7VVFVlGZchHivx6XgYOUAifJfxqeuZ587fuw2ngZB9XjGSCt2HZ8fKpB/MeJS5diNys9ltDbf9302D+TxWuPyUg51EETpCFIM7xQUh15Azncgfo9ZebvaMHZZnx5onPTYrRGB32anOb0GoQKCHQqxNLGL9HDYFLkemsUn879yItMJVod89d1DVEy2K8OdpoRzqkNLuBL9lGbgfhjxtQ8RYaRGEaRXNPzK7QK+msUyzxWrV53QQyKPv5hVwZ+GNAQXbluW/TruZG9XVHqRijZzh1jePp38hIv1RpOkPPswOlppyZB7WIO/7C/YYWoM4irsnHmK4m8TnrygeGRZaxALAoPUBB3fwJbIKcKjv+GbulqPQAyYFB4SsoqHyZh3kN/KbZUpEqkHf5TRvOZ2lzO7PBQbuUQLLgRPWe5rUk3MoJr7sMoD2kPLnz10aI4xOV8EWO4NzhlbuEJ2yvGh38lycOmbNktIJsCe3mwXeslPqzUaN8lHsTxYGbIkmOWXs0o3KqY+FHDHVEKgQID5yN1P+vX6ibXRE/YxoXkVD3KMnK5wIwY+sV+fcbxodOSt+1WPu3Biabtlqt7FkARVGlA/OShHiiCAMw+u/bznYhuHBTmIdzs6SLaiXMKbVGYIXPVyev8KxtdJuz/Ql+0eoGdYU/0707KL2CN3ZKZHz7FO2bZZauo/yV6v6rB+F0l4mRF78hQ1a0XtXnZwSJllPDMALSj9BFGne1RaBYuKgDdZO0IANWKvx61vUJz+8f7H0N5ulGNW7Ff7Eur7BKhUg643AmWIM2/cToAtUQ/dTLZNGgY4t+BaM3+gniies9yuH+BBUidvrllY0qunYnc0GMnRzJtZqjMP7K5fvMLNHxnfQgRKknLQMJIVNGTkjHYwpe8fteBDHm13mlp80kWC13G/b/t2nb3vA5P0iSuZBsccBkIlESLpeT7mmZf7q4GksguaW9zN+8/1Pc9/i+4eCDUZY8LYunf0FAirvHYHj0bvKBMP/FgHxUcNeS663LpYgKJDYBxbz+2BjabworxHZkksJKrzIfvcLf/Up0Dtm69GL7JtkKtLiV5QCtbFaC3/hxeKWedNI6Agm0xGT1skEBkt7USfbEZt1oMi9VfkdqkJHdtw7tJeufv6uIO/U5YagMJE7bjLSBU579lXwUHDrBNgfn9HqRfQHL7hdOkW+WzzC5phTSyeAXhoUGM8Zpp4DaIXwhJ2m/v7YO1x0oyo0u41EZWkC+4+qrycPDcwwIfY685I3RkOvkrdDcmU6hzLQMa4o8kQw/RVKkDvuAdeLEl1mGAyJz4aupPP5L3vom/LXR/1b8ny01EyQGLCQTEyaaHaed/ppDQN8gCYDbWerKSCMiJpYjCbwm/bSu4Ffb6uCXHL8KwnsIZbi8lmNYBXcjBV+YYAXTmnShflsZL5KcDPg5CMpgXwjcP9TS+Zk03QWnjMlHxDnbX60TzV+1RbH6MDJ7GNTXJpbhHtRfidFxcw7KlcY1mGRs7HhjkIlL/OsfdPJLvd+zHEHQC2+0NIk2lGf6SsZFFFqrfqu+SPNbrwE7JqzBYSzi8aNvK3FjVr8euSojIwvOxpcv306fA9pUn0oVnohyezlxyjuc+wGFUR1ITiAbU+03gxpkx4zPotm5bpPS7HUM1Xia9OyCGqRDF4vKkAbnEcKAD/H+opN423F+SiLIlYp8aa9x/Hle5lAOuonSYK2j+oD+iPRK5Dd9E+ia9omZUsRIWTJ9oMViWEAIpw0oc3YqbZox025Ouj9HozzbrRGnwo22oeiWHlp3GKxEFcz2W4zpKg3OFYUMsDeYTJ8tBMEltzaJ7OzRgQGOXEgUIoJHOwJta4Ho5Soz43f9fP1Vg7lk94zDLlLU22tThzHU7Q2V/8GMm0F43pFq6tdia0/92wDKUicBhLDpOd5+zo0wqFHqCcNA5ZK6sqzAVmCS6ZmAMoImr6oWkLpExvhWZA6ZkA9IIho+dS8sTMhiYKHF1OPLziqGvkwRb5G957M4tRMoM+FEThuv4x7EDphnp+QihkBLfxknMDuZfaBh89YReIK5Fa/QmVWN3U7ShECd8QNXoBiiCRWtdjR/pq2zQQRsGOvSbmoYrKshe8ffCp5dJoJ9XIsWjPjvlN4g/iOpk8yBDoj1R1wxeFuteSR4ZexjwsLGJ/fK7yNmGlcY6Y85oMvZOvuYtgghR9zpYYuZFUoS5WSOoHEDeuP2oSfMUTy8yXluskyFYTv4OCICJ2TyiRhWJ4WUXD7+8BcQlX7idmlBCS9mjwdA/pbBLfH9mqD9aNH0MQWn+ezBnSDzwfNdm8tgFepSpD7HIbQANAM90P1Jph3u2zkuN6TZDFlo826JZ/nWAhXQK7GO1adAk3R+rWE2M0Vw1QQRRSEmv4Iik6LS+VgZX0eiXpFTZ/R2E1GSkkfBaCkscWe5Q+KNtZyjFMn1WHsf5hJuAG1MUf4BubaK+oPZcfZybT3F78yT6FtJcllVP870DEZDwbqdZhZzNKXfTR/6vvNXIlD1+pyOrJG/1Hk7/7YakKEA56mVry1zSPhLDMiZxTjUYxayGuaE+b46YaR4PjRzhRTuIMbZx6QKmCDAJT1jEFbhIwUh0KLOp78zc67yvwvA3UX+BcsygFtRv9KK0t4Tda9mHFkStKnG971ZttE0jv72UDRru1YV0JnrmaOPrFRGgVZmfQAWvB2pC2V3Oa1yQD4TUzhMkSQ9BqOc/UrBNsftqt3TEZ017dBor8cjH03FQQA9OFY7UdVTFDKKs+/8FViME46fYx8O9vrTAg0XHYfhtxGqe24bylA516J52FrnT7JzKCupyYWrJ51GemFfGx7EENrcmEwzMtNMOXYm8YQM1zwRzWyTvJdiiez7RLUJoKezW8cAQ1T90YrO8LS5WWcRaw8DZoj2JCnzFSK21g9B3zJ9sYlSypg+uOU2ixlbvNo+3LKgDpYM6BIdczVfTszStg97plUmizT/d8M3ok9kuZlxlE5Vy9c6LbOdzbhc63KvS8H6oHcbnFv1OauC/GFdS76tO/tp2FuU17jDfCfLRYpssmBOfRs9mpzY5/kjtrbH9e3rA5lP4ujZPzuXh7xYwV2QgvTPrU4pWaLP6eBiWyi0W0meJN/lUqugd+LxBP7hg9zqoEYXF3qFd182U/fNyTfczMgnzvp+kL8k8RX3k0he8+K5UQxRtXqbTAe6tBeN0I5TKWIGjv8UhMoX9moQyW/jQ6hHunUq0rjrz8KCQNk3fhPcrvYgAS2lwFxR4T2wuycZnNSbCda7ayeE9xirUYDmkfRdPy1lOtUIIXlpVRmlRakbmI5xd62clhiSGtInRi5LsRbyJtzvBC8+d6/L7NHO4Pbot5sIi7TUijx91jzB/JFR24XoFRz873IGKgSg3Y7rOyQczmbmd5Gv9/xaA+1tp2wFiEYNDwX5OTVb7ORyFsX7Ohn0M6gqd2MHQADmM2kUTAumxaGhEg6I+s48dr5XLXVmq02B5hymerFMlpbZ3fVy+oZTHRUyO0Vzs8VpGijoxc8dJL6xgdRWLEAGGjdc3WRGrifDVIl8SNbKI4kWgZpIFxx3zYwO5ZGfQqsR4TZPuoTbxlSztxEIxFZ4C8tRBTPbxVCDo8zq7TGbnGyEsCTZj5POboya09AgMgkFbjeQueL874DOFUUy57EbTw9Y9ZLQku1H5tRedKM6Kt1aCTNJHAW/xl6NyNDbuUyebBWLq4dPmb/jpUdgWMhnTpDG0wnpwClfVkLKfNjuR2Dg6w0XMef1QGOdFwJ85pjNRcekCLVax9Lp1CaMGHCLs/fz8CJWoG2Hc0OUUrK+a1SjwaaikgLVM1bMoLvMoFSA6qSR9cyiGNBPiolIW+v3HykqnSRyRQoo+RmwbMBcSJcs1mpVC0f/EvTaQr53X+e7npWR9JhSKopmPc6DRuTOnCW6IWV0UIOmKb0swc0JZSmomt7qw5xpDul7dI0X7xeZWmXDRIos4Z0r8HV7JA9Noru1kSBT6pA4Rn16q0GU6jVJk2lTr2n8rvAVGYKgkI39m0629fkJUoIhOJdX+yb7oKhQ3DkRAt/OGONyU7z/hNtOng6BHANNbkM9tG2HmUA/ugUPvWtDXiuYd6gWiKZHfrNgF1VWseJLVa8InETdM8+zTekzaGiAvchSg0tGsXe3k5uYkhLXMTJhPBT5LrWjLZqacuprhTm4fcj0hhV/kfIFmWseu31SACOMgw2zQSdFGsAVJt6imNOaPs9feF/A3ws7+60u2IQq7cL8ulK7fsyS9cg0sTHei7NiA/uEcKF+W9qwbSlGQaJ0CUgpS6xLQyVvhr36Cwprs3HfgwS2LzOZDVsK5vKbUgemYcYSXSau3Cu9FztH50ZCmy5Ga9JMQG3znxe5LY1XhRs3t1Z6qZ1EUYJCocyrYbq1FdrBywtw4VjEXRtPibpOE6PqY4kHfS3EcpeInKD+FrKxThLJRcalr/DkE+KJckXkkTT3awqpTG8fuhpds2BefF2gPqh3DXTYoyNZvxpCkX0YevqE17yyam84ZwTrrcyK5a1JiRvBCeFO6svA5i+B30f9Tbm9Zg+kY5FGjcmoYnFceqZrp7wWYvKYopo7/hdDzZqyLyoBTrvzmcp6o84JrChUHGGUWrMB3/Q+nzghD3Lgc5JUvcbDLmjkn9FXCk0iXVaKQEzztavjcRew56HI8sLnFn30Vt/VuK9V8itFJ/bttN+Ap4QSDIKA+3TDqiT8X/85guWKXnMODUk5geP3gj5pPtEUhgP8m/di32HO1ti0BUQCW8F010rMEvkNp4wQLxPNwGhlAeAmRpuXdX6SmlqTYJ6lwj5zi/LLKifbTARj05Hfok01/6fzN5D/op7aVBgJUOa9s9prBP/l1lkFRjpcOYF6MjjZNQYxC4XTFlBRd41J2dEqPuManU2WhsDowzjcQKVSzq+K6oCebAmCWydR1WULjfwJgFGwuIOnDmxattn8lAFHLXjwJIFf1Om3qyuc0LpBIiiJD3vNDuUzR4WWVTv4KNRzeGBz44sfRrYLQx5P+XWxg3b/4wqolQNlornfq5B5Xd/D6Alt/stNLa6A++S4yLDjWnZrpQ5wkKXFKgfWmFff3/HKoIGq8ScbJWWlonwtQhjVg46A/U6d6Qz8Au0pD6ELTZmUS4gI2hRQeNLA0mHfpL+WbC/DaozA55tNZFNN109G2eWOZyvnTvKuJu7HymFFNrJFNMYW4J8SjXieVU6HSMXrq+KfYp2K+4gOsFxnjc9TgkI9Hi9TN5xL4UiE2tji85lNTuJum6GISPKALA3f4gIrbrf5muCdmh8rPgehVH75Q9luDnOo/9gtsVLie4gAXOHECSwv68aYf0cgdSVmKMmDzkLOZZ3ynG0y27VNlShDho6nXJlsSUI0AcXykcQNXvcbc5mthKOTVJm+xU56c8nRq/giAWkyUWCit8btF4JcD20eM3GUgJeZz/HVCK3UOCTntL3hQJjAYccMct7bLhgjPAShtpniaG1ZaT8rc0lp7pczxdz/qxAKWFqvEOW0qTHxR1KYfWPYqkPKL22uK1xdm2op63ixdsO4Z+CrNg3ubtoWbJRD9uNUfioLmCJda0EdTldmnyXE4quU6QVZVYHEEXuFED+NVXdUeG5Yp0DHYmmtaFhshEiAnsBc/Odd8xpklO6rQuzT7WKoBNiq8Xe5S763cI+V4OXpp/s+ewWc0DsoFElgfBdfs9bI6490ZEUcz9iS+PXxP6GB9Q34aYhoWXFnFHMtAZ4kVQ/9dzlV2Cp45/oKjVWeGg25v3GZ8TCg5WHeSbfe8PC2bzS6PRFkY7l/IPUEbKzyku/yfS470tRk9JOJL2tWBKjSy54UFdKmMke02Mr/iy/RHz2n5haYbWkj6K/YWQ46zlrb/dY/ePvQiiBsa/wPiV7qrNfXo5aYNukgTpY/AAZprn8MLMft0iTtwARG1FVF3n3HXKx2BM82apxuA9vt/fy7uFuGP59vCMinHToHYycWPFAOVdsBM+WfUCP0Epu8vLR/7Sr2D+Hp/rAgGZaOSY7QANMh9pCg4KXQ1XkjO5cS029xFwAwBBpHCZCPlqTZLcyQKpUYp+euN74HfOIXs191v3vjygAC6i1zccytnMENj+FtMkONltXPd8/NcNRZ42IdrsoSSG1oVYh9/yJRhHyw0sBkJ2/b7t80PVW3fkEkVJGI6ouTkZ5Qcm2k6PYAoLkcwAAAOf6lIE19aqiDtYIktzYw//VfwUpHOzFRbyMm27u07T07qCElLkc7+UYFhP+w/ZP4NeES2CyV7cJCbe4DvkxAX8Fye9qAAAA8v/gFVcxm6pAUUWxBpiReKZavHJzoI0JnvMaPNbPVwMfVKVbGoRS/az+qDYCJtuwzxPboAEYBhVeC54cM52h/w2DowimAAAAH+0Ndd504MzydUHYFwX+B/LLqKftLOn4BYtVrz813joHpTq8JnZa+vk9uJL5ZBG6WZgGZM88X3C8SKAHdYAAAAAEZ2PAXM4NRJ6qtRjOAb5UAHHgKKtZomtcpOFR71i+hCL4g/iqxHJxuON3KQtyP3ve0kx6AAAAAARVhJRroAAABFeGlmAABJSSoACAAAAAYAEgEDAAEAAAABAAAAGgEFAAEAAABWAAAAGwEFAAEAAABeAAAAKAEDAAEAAAACAAAAEwIDAAEAAAABAAAAaYcEAAEAAABmAAAAAAAAAEgAAAABAAAASAAAAAEAAAAGAACQBwAEAAAAMDIxMAGRBwAEAAAAAQIDAACgBwAEAAAAMDEwMAGgAwABAAAA//8AAAKgBAABAAAAXAMAAAOgBAABAAAAhQIAAAAAAAA=;" vertex="1" parent="1">
          <mxGeometry x="710" y="272.5" width="69.18" height="51.88" as="geometry" />
        </mxCell>
        <mxCell id="61LjxQp0p0RMew8H37HQ-18" value="" style="rounded=0;whiteSpace=wrap;html=1;" vertex="1" parent="1">
          <mxGeometry x="870" y="240" width="240" height="190" as="geometry" />
        </mxCell>
        <mxCell id="61LjxQp0p0RMew8H37HQ-22" value="" style="image;aspect=fixed;perimeter=ellipsePerimeter;html=1;align=center;shadow=0;dashed=0;spacingTop=3;image=img/lib/active_directory/database.svg;" vertex="1" parent="1">
          <mxGeometry x="947.69" y="272.5" width="84.62" height="62.62" as="geometry" />
        </mxCell>
        <mxCell id="61LjxQp0p0RMew8H37HQ-23" value="&lt;b&gt;BASE DE DATOS&lt;/b&gt;" style="text;strokeColor=none;align=center;fillColor=none;html=1;verticalAlign=middle;whiteSpace=wrap;rounded=0;" vertex="1" parent="1">
          <mxGeometry x="960" y="360" width="60" height="30" as="geometry" />
        </mxCell>
      </root>
    </mxGraphModel>
  </diagram>
</mxfile>
